<svg width="30" height="30" viewBox="0 0 30 30" fill="none" xmlns="http://www.w3.org/2000/svg">
<g clip-path="url(#clip0_2025_4951)">
<rect width="30" height="30" fill="white"/>
<path d="M21.9584 16.6896L22.4884 13.8696C22.3884 13.8596 22.2784 13.8496 22.1784 13.8496H16.8384C16.7184 13.8496 16.6084 13.8996 16.5284 13.9796C16.4484 14.0596 16.3984 14.1696 16.3984 14.2896V15.9096C16.3984 16.0296 16.4484 16.1396 16.5284 16.2196C16.6084 16.2996 16.7184 16.3496 16.8384 16.3496H19.4584C19.4584 16.3496 19.5084 16.3496 19.5384 16.3696C19.5584 16.3796 19.5884 16.3996 19.5984 16.4196C19.6184 16.4396 19.6184 16.4696 19.6284 16.4996C19.6284 16.5296 19.6284 16.5496 19.6184 16.5796C19.5784 16.6596 19.5384 16.7496 19.4984 16.8296C19.4684 16.8796 19.4584 16.9396 19.4584 16.9996C19.4584 17.0596 19.4784 17.1196 19.5084 17.1696C19.5384 17.2196 19.5884 17.2596 19.6384 17.2896C19.6884 17.3196 19.7484 17.3296 19.8084 17.3296H21.2884C21.5884 17.3296 21.8884 17.0396 21.9584 16.6796" fill="#1E8CA5"/>
<path d="M7.75 14.5896H9.51C9.6 14.5896 9.68 14.5496 9.75 14.4896C9.81 14.4296 9.85 14.3496 9.85 14.2596C9.9 13.3996 10.16 12.5596 10.61 11.8296C11.06 11.0996 11.69 10.4796 12.45 10.0496C13.24 9.58963 14.14 9.34963 15.06 9.34963L15.64 9.36963C15.69 9.36963 15.75 9.36963 15.8 9.35963C15.85 9.34963 15.9 9.31963 15.94 9.28963C15.98 9.25963 16.02 9.21963 16.04 9.16963C16.07 9.11963 16.08 9.06963 16.09 9.01963L16.12 8.87963L15.35 8.07963L15.04 7.75963C14.94 7.64963 14.81 7.56963 14.67 7.50963C14.53 7.44963 14.38 7.41963 14.23 7.42963H11.37L11.14 7.48963C9.85 8.18963 8.79 9.22963 8.06 10.4896C7.43 11.5596 7.07 12.7696 7 14.0096C7.05 14.1796 7.15 14.3196 7.29 14.4296C7.43 14.5296 7.6 14.5896 7.77 14.5896H7.75Z" fill="#1B2443"/>
<path d="M19.7495 18.3498H18.5795C18.4695 18.3498 18.3695 18.3898 18.2895 18.4598C18.1695 18.5798 18.0395 18.6898 17.8995 18.7898C17.2595 19.2698 16.4995 19.5698 15.6995 19.6698C15.3995 19.7098 15.1195 19.8498 14.8995 20.0598L12.8095 21.9998C12.8095 21.9998 12.7695 22.0398 12.7695 22.0698C12.7695 22.0998 12.7695 22.1298 12.7695 22.1498C12.7695 22.1798 12.7895 22.1998 12.8095 22.2198C12.8295 22.2398 12.8495 22.2598 12.8795 22.2598C13.5895 22.4498 14.3195 22.5498 15.0595 22.5498C16.4495 22.5698 17.8095 22.1998 18.9895 21.4798C19.6195 21.0898 20.1895 20.6098 20.6795 20.0498C20.7295 19.9898 20.7695 19.9198 20.7795 19.8398L20.8695 19.3498C20.9795 18.7798 20.4895 18.3398 19.7495 18.3398" fill="#1B2443"/>
<path d="M12.4386 19.0096C11.6486 18.5596 10.9886 17.8996 10.5386 17.1196C10.2986 16.7096 10.1186 16.2696 10.0086 15.8096C9.99859 15.7496 9.95859 15.6996 9.90859 15.6596C9.85859 15.6196 9.79859 15.5996 9.73859 15.5996H7.24859C7.24859 15.5996 7.18859 15.5996 7.16859 15.6196C7.13859 15.6296 7.11859 15.6496 7.09859 15.6696C7.07859 15.6896 7.06859 15.7196 7.05859 15.7396C7.05859 15.7696 7.05859 15.7996 7.05859 15.8196C7.22859 16.7796 7.55859 17.7096 8.03859 18.5596C8.73859 19.7696 9.75859 20.7796 10.9786 21.4796C11.1186 21.5596 11.2686 21.6396 11.4186 21.7096L13.4186 19.8596C13.4186 19.8596 13.4786 19.7896 13.4886 19.7396C13.4986 19.6996 13.5086 19.6496 13.4886 19.5996C13.4686 19.5496 13.4586 19.5096 13.4286 19.4796C13.3986 19.4396 13.3586 19.4196 13.3186 19.3996C13.0086 19.2896 12.7186 19.1596 12.4386 18.9996" fill="#1B2443"/>
<path d="M19.3288 11.8803L20.1388 12.7203C20.1388 12.7203 20.2088 12.7803 20.2588 12.8003C20.2988 12.8203 20.3488 12.8303 20.3988 12.8303H22.3088C22.3988 12.8203 22.4888 12.7803 22.5588 12.7103C22.6288 12.6503 22.6688 12.5603 22.6788 12.4703L23.0088 10.6803C23.0488 10.4803 22.9388 10.3203 22.7688 10.3203H20.8588C20.7488 10.3203 20.6488 10.3603 20.5688 10.4303L19.3688 11.3303C19.3688 11.3303 19.2888 11.4003 19.2688 11.4503C19.2388 11.5003 19.2287 11.5503 19.2188 11.6003C19.2188 11.6503 19.2188 11.7103 19.2388 11.7503C19.2588 11.8003 19.2888 11.8403 19.3188 11.8803" fill="#1E8CA5"/>
<path d="M24.2695 17.9395H19.4995C18.6821 17.9395 18.0195 18.6021 18.0195 19.4195V24.1895C18.0195 25.0068 18.6821 25.6695 19.4995 25.6695H24.2695C25.0869 25.6695 25.7495 25.0068 25.7495 24.1895V19.4195C25.7495 18.6021 25.0869 17.9395 24.2695 17.9395Z" fill="#1E8CA5" stroke="white" stroke-width="0.5" stroke-miterlimit="10"/>
<path d="M20.1406 24.1388V19.4688H22.0706C22.0706 19.4688 22.1706 19.4688 22.2406 19.4688C22.3106 19.4688 22.3806 19.4788 22.4406 19.4888C22.7106 19.5288 22.9306 19.6188 23.1106 19.7588C23.2906 19.8988 23.4206 20.0688 23.5006 20.2788C23.5906 20.4888 23.6306 20.7188 23.6306 20.9788C23.6306 21.2388 23.5906 21.4688 23.5006 21.6788C23.4106 21.8888 23.2806 22.0688 23.1106 22.1988C22.9306 22.3388 22.7106 22.4288 22.4406 22.4688C22.3806 22.4688 22.3106 22.4788 22.2406 22.4888C22.1706 22.4888 22.1106 22.4888 22.0706 22.4888H20.9206V24.1188H20.1406V24.1388ZM20.9306 21.7788H22.0406C22.0406 21.7788 22.1306 21.7788 22.1906 21.7788C22.2406 21.7788 22.2906 21.7688 22.3406 21.7488C22.4706 21.7188 22.5706 21.6588 22.6506 21.5788C22.7206 21.4988 22.7806 21.3987 22.8106 21.2987C22.8406 21.1987 22.8606 21.0888 22.8606 20.9988C22.8606 20.9088 22.8406 20.7988 22.8106 20.6888C22.7806 20.5888 22.7306 20.4888 22.6506 20.4088C22.5706 20.3288 22.4706 20.2688 22.3406 20.2388C22.3006 20.2288 22.2506 20.2188 22.1906 20.2188C22.1406 20.2188 22.0906 20.2188 22.0406 20.2188H20.9306V21.7987V21.7788Z" fill="white"/>
</g>
<defs>
<clipPath id="clip0_2025_4951">
<rect width="30" height="30" fill="white"/>
</clipPath>
</defs>
</svg>
