<svg xmlns="http://www.w3.org/2000/svg" width="18" height="19" viewBox="0 0 18 19" fill="none">
  <path d="M4.5 2L2.25 5V15.5C2.25 15.8978 2.40804 16.2794 2.68934 16.5607C2.97064 16.842 3.35218 17 3.75 17H14.25C14.6478 17 15.0294 16.842 15.3107 16.5607C15.592 16.2794 15.75 15.8978 15.75 15.5V5L13.5 2H4.5Z" stroke="white" strokeLinecap="round" strokeLinejoin="round"/>
  <path d="M2.25 5H15.75" stroke="white" strokeLinecap="round" strokeLinejoin="round"/>
  <path d="M12 8C12 8.79565 11.6839 9.55871 11.1213 10.1213C10.5587 10.6839 9.79565 11 9 11C8.20435 11 7.44129 10.6839 6.87868 10.1213C6.31607 9.55871 6 8.79565 6 8" stroke="white" strokeLinecap="round" strokeLinejoin="round"/>
</svg>