<svg xmlns="http://www.w3.org/2000/svg" width="27" height="20" viewBox="0 0 27 20" fill="none">
  <g clipPath="url(#clip0_617_8602)">
    <path d="M0 0H27V20H0V0Z" fill="#E41E20"/>
    <path d="M11.475 3.8877C11.281 3.8877 10.9561 3.9502 10.9604 4.09603C10.4119 4.00853 10.3571 4.22936 10.3908 4.42936C10.4414 4.3502 10.5047 4.30436 10.5554 4.3002C10.6271 4.2877 10.703 4.3127 10.7832 4.35853C10.8588 4.40537 10.927 4.46293 10.9857 4.52936C10.7916 4.5752 10.6397 4.54603 10.4879 4.52103C10.402 4.50296 10.3204 4.46903 10.2474 4.42103C10.1841 4.37936 10.163 4.3377 10.066 4.24186C9.95207 4.1252 9.82973 4.15853 9.86769 4.3377C9.95629 4.50436 10.1039 4.57936 10.2896 4.6127C10.3782 4.6252 10.5132 4.65436 10.665 4.65436C10.8169 4.65436 10.9857 4.63353 11.0785 4.65436C11.0236 4.6877 10.9604 4.7502 10.8338 4.77103C10.7072 4.79603 10.5174 4.69603 10.3993 4.67103C10.4119 4.76686 10.5385 4.85853 10.7832 4.90853C11.1882 4.99186 11.5214 5.05853 11.745 5.17936C11.9219 5.27673 12.078 5.40689 12.2049 5.5627C12.4032 5.79186 12.4158 5.97103 12.4243 6.0127C12.4664 6.37936 12.3357 6.5877 12.091 6.65436C11.9729 6.68353 11.7535 6.6252 11.6775 6.53353C11.5932 6.44186 11.5214 6.28353 11.5425 6.03353C11.5636 5.94186 11.6733 5.6877 11.5805 5.6377C11.1406 5.39894 10.6854 5.18878 10.2179 5.00853C10.1124 4.96686 10.028 5.10853 9.99426 5.16686C9.68275 5.12398 9.38482 5.0131 9.12212 4.84229C8.85941 4.67148 8.63853 4.44502 8.47551 4.17936C8.29832 3.8627 7.99879 4.17936 8.04941 4.48353C8.12957 4.81686 8.38691 5.05853 8.6991 5.23353C9.01551 5.40436 9.41629 5.5752 9.81707 5.56686C10.0364 5.60853 10.0322 5.88353 9.77488 5.9377C9.26441 5.9377 8.8552 5.92936 8.47129 5.5627C8.1802 5.3002 8.01988 5.61269 8.10004 5.78769C8.24348 6.33353 9.03238 6.4877 9.82973 6.3127C10.1419 6.2627 9.95629 6.5877 9.87191 6.59186C9.53441 6.82936 8.93957 7.05853 8.41223 6.59186C8.17176 6.40853 8.00723 6.55853 8.10004 6.82103C8.33207 7.50853 9.22645 7.3627 9.83816 7.02936C9.99426 6.94186 10.1377 7.14186 9.94785 7.29603C9.18426 7.82103 8.80457 7.82936 8.45863 7.62936C8.02832 7.45853 7.99457 7.92936 8.2477 8.0877C8.53035 8.25436 9.25176 8.12936 9.78332 7.79603C10.0111 7.62936 10.0196 7.89186 9.87613 7.99603C9.24754 8.53353 8.99863 8.6752 8.34473 8.5877C8.01988 8.5627 8.0241 8.95853 8.27723 9.1127C8.62738 9.3252 9.31082 8.97519 9.83816 8.53769C10.0618 8.42103 10.0997 8.6127 9.99004 8.84186C9.7565 9.16823 9.43902 9.42713 9.07035 9.59186C8.77504 9.70436 8.4966 9.6877 8.29832 9.62103C8.05363 9.53769 8.0241 9.7877 8.1591 10.0127C8.23926 10.1502 8.57254 10.1919 8.93535 10.0669C9.29816 9.94186 9.68629 9.64186 9.95207 9.29603C10.1841 9.09186 10.1588 9.3627 10.0491 9.55436C9.51754 10.3877 9.02816 10.696 8.3827 10.646C8.10004 10.596 8.03254 10.8127 8.21395 11.021C8.53457 11.2794 8.93113 11.271 9.28551 11.0127C9.59348 10.721 10.1883 10.0794 10.5005 9.7377C10.7199 9.56686 10.7916 9.7377 10.7241 10.0877C10.665 10.2877 10.5216 10.5044 10.1208 10.6544C9.8466 10.8085 10.0533 11.021 10.2558 11.0294C10.3697 11.0294 10.5975 10.896 10.7747 10.7044C11.0025 10.446 11.0194 10.2752 11.146 9.8752C11.2641 9.68353 11.4793 9.7752 11.4793 9.97519C11.3738 10.3752 11.2894 10.446 11.0785 10.6085C10.8802 10.796 11.2177 10.8585 11.3316 10.7794C11.6607 10.5627 11.7788 10.2794 11.8885 10.021C11.9729 9.8377 12.2007 9.9252 12.091 10.2294C11.8379 10.9544 11.416 11.2377 10.6861 11.3877C10.6144 11.4002 10.568 11.4419 10.5933 11.5252L10.8886 11.8169C10.4372 11.9502 10.0702 12.0252 9.61457 12.1502L8.9902 11.7419C8.93535 11.6085 8.90582 11.4002 8.57676 11.546C8.35738 11.446 8.25191 11.4835 8.12957 11.5877C8.30676 11.5877 8.38269 11.6377 8.45441 11.7169C8.54723 11.9544 8.75816 11.9794 8.97332 11.9127C9.11254 12.0252 9.18426 12.1169 9.3277 12.2335L8.62316 12.2127C8.37004 11.9502 8.17598 11.9627 7.99879 12.171C7.85957 12.1919 7.80473 12.1919 7.71191 12.3544C7.85535 12.296 7.94816 12.2794 8.01144 12.3419C8.27723 12.496 8.45019 12.4627 8.58098 12.3419L9.31926 12.3877C9.22644 12.471 9.09988 12.5127 9.00285 12.5877C8.62316 12.4794 8.42066 12.6294 8.35316 12.9335C8.29984 13.0555 8.2823 13.1897 8.30254 13.321C8.33629 13.196 8.39957 13.0919 8.50926 13.0294C8.84676 13.1127 8.97332 12.9752 8.99441 12.7752C9.16316 12.6419 9.40785 12.6127 9.57238 12.4794C9.76644 12.5377 9.85926 12.5752 10.0533 12.6377C10.1208 12.846 10.2769 12.9252 10.53 12.871C10.8254 12.8794 10.7747 13.0044 10.8 13.1002C10.8844 12.9627 10.8802 12.8252 10.6946 12.7002C10.6271 12.521 10.4752 12.4377 10.2811 12.5419C10.0955 12.4919 10.0491 12.4169 9.86348 12.3627C10.3275 12.2169 10.6566 12.1835 11.1207 12.0377L11.4455 12.321C11.5088 12.3585 11.5679 12.3669 11.6058 12.321C11.8969 11.9044 12.0277 11.5419 12.2935 11.2669C12.3989 11.1502 12.5297 11.0002 12.6732 10.9627C12.7449 10.9419 12.8335 10.9544 12.8925 11.0169C12.9474 11.0752 12.9938 11.1877 12.9769 11.3585C12.9474 11.596 12.8883 11.6752 12.8208 11.8169C12.7491 11.9627 12.6689 12.0502 12.5804 12.1627C12.4116 12.3835 12.1838 12.5127 12.0488 12.6002C11.7788 12.771 11.6691 12.696 11.4582 12.6835C11.1882 12.7127 11.1207 12.8419 11.34 13.021C11.5425 13.1294 11.7282 13.1419 11.88 13.1127C12.0066 13.0877 12.1585 12.9252 12.2682 12.8377C12.3863 12.7002 12.5888 12.8627 12.4496 13.0252C12.2007 13.3169 11.956 13.5085 11.648 13.5044C11.3232 13.546 11.3864 13.7252 11.5974 13.8127C11.9855 13.9669 12.3314 13.6752 12.5086 13.4794C12.6436 13.3335 12.7407 13.3294 12.7196 13.5585C12.5804 13.971 12.3989 14.1294 12.0952 14.1502C11.8505 14.1252 11.8463 14.3169 12.0277 14.4419C12.4327 14.7169 12.728 14.2419 12.8672 13.9585C12.9643 13.7002 13.1161 13.821 13.133 14.0335C13.133 14.321 13.0064 14.5502 12.6563 14.8419C12.9221 15.2627 13.2343 15.6919 13.5 16.1127L14.31 7.19603L13.5 5.79186C13.4157 5.71686 13.1288 5.38353 13.0571 5.33353C13.0275 5.30853 13.0149 5.29186 13.0529 5.2752C13.0908 5.25853 13.1794 5.24186 13.2427 5.23353C13.0739 5.0627 12.9221 5.00853 12.5972 4.91686C12.6774 4.88353 12.7533 4.9002 12.9896 4.89186C12.8446 4.69949 12.647 4.55204 12.42 4.46686C12.5972 4.34186 12.631 4.33353 12.8082 4.1877C12.5287 4.16637 12.2526 4.11324 11.9855 4.02936C11.826 3.95449 11.6548 3.9066 11.4793 3.8877H11.475ZM11.5088 4.2377C11.6691 4.2377 11.7661 4.29186 11.7661 4.35853C11.7661 4.4252 11.6691 4.47936 11.5088 4.47936C11.3485 4.47936 11.2472 4.41686 11.2472 4.35436C11.2472 4.2877 11.3485 4.2377 11.5088 4.2377Z" fill="black"/>
    <path d="M15.525 3.8877C15.719 3.8877 16.0439 3.9502 16.0396 4.09603C16.5881 4.00853 16.6429 4.22936 16.6092 4.42936C16.5586 4.3502 16.4953 4.30436 16.4446 4.3002C16.3729 4.2877 16.297 4.3127 16.2168 4.35853C16.1412 4.40537 16.073 4.46293 16.0143 4.52936C16.2084 4.5752 16.3603 4.54603 16.5121 4.52103C16.598 4.50296 16.6796 4.46903 16.7526 4.42103C16.8159 4.37936 16.837 4.3377 16.934 4.24186C17.0479 4.1252 17.1703 4.15853 17.1323 4.3377C17.0437 4.50436 16.8961 4.57936 16.7104 4.6127C16.6218 4.6252 16.4868 4.65436 16.335 4.65436C16.1831 4.65436 16.0143 4.63353 15.9215 4.65436C15.9764 4.6877 16.0396 4.7502 16.1662 4.77103C16.2928 4.79603 16.4826 4.69603 16.6007 4.67103C16.5881 4.76686 16.4615 4.85853 16.2168 4.90853C15.8118 4.99186 15.4786 5.05853 15.255 5.17936C15.0781 5.27673 14.922 5.40689 14.7951 5.5627C14.5968 5.79186 14.5842 5.97103 14.5757 6.0127C14.5336 6.37936 14.6643 6.5877 14.909 6.65436C15.0271 6.68353 15.2465 6.6252 15.3225 6.53353C15.4068 6.44186 15.4786 6.28353 15.4575 6.03353C15.4364 5.94186 15.3267 5.6877 15.4195 5.6377C15.8594 5.39894 16.3146 5.18878 16.7821 5.00853C16.8876 4.96686 16.972 5.10853 17.0057 5.16686C17.3173 5.12398 17.6152 5.0131 17.8779 4.84229C18.1406 4.67148 18.3615 4.44502 18.5245 4.17936C18.7017 3.8627 19.0012 4.17936 18.9506 4.48353C18.8704 4.81686 18.6131 5.05853 18.3009 5.23353C17.9845 5.40436 17.5837 5.5752 17.1829 5.56686C16.9636 5.60853 16.9678 5.88353 17.2251 5.9377C17.7356 5.9377 18.1448 5.92936 18.5287 5.5627C18.8198 5.3002 18.9801 5.61269 18.9 5.78769C18.7565 6.33353 17.9676 6.4877 17.1703 6.3127C16.8581 6.2627 17.0437 6.5877 17.1281 6.59186C17.4656 6.82936 18.0604 7.05853 18.5878 6.59186C18.8282 6.40853 18.9928 6.55853 18.9 6.82103C18.6679 7.50853 17.7736 7.3627 17.1618 7.02936C17.0057 6.94186 16.8623 7.14186 17.0521 7.29603C17.8157 7.82103 18.1954 7.82936 18.5414 7.62936C18.9717 7.45853 19.0054 7.92936 18.7523 8.0877C18.4696 8.25436 17.7482 8.12936 17.2167 7.79603C16.9889 7.62936 16.9804 7.89186 17.1239 7.99603C17.7525 8.53353 18.0014 8.6752 18.6553 8.5877C18.9801 8.5627 18.9759 8.95853 18.7228 9.1127C18.3726 9.3252 17.6892 8.97519 17.1618 8.53769C16.9382 8.42103 16.9003 8.6127 17.01 8.84186C17.2435 9.16823 17.561 9.42713 17.9296 9.59186C18.225 9.70436 18.5034 9.6877 18.7017 9.62103C18.9464 9.53769 18.9759 9.7877 18.8409 10.0127C18.7607 10.1502 18.4275 10.1919 18.0646 10.0669C17.7018 9.94186 17.3137 9.64186 17.0479 9.29603C16.8159 9.09186 16.8412 9.3627 16.9509 9.55436C17.4825 10.3877 17.9718 10.696 18.6173 10.646C18.9 10.596 18.9675 10.8127 18.7861 11.021C18.4654 11.2794 18.0689 11.271 17.7145 11.0127C17.4065 10.721 16.8117 10.0794 16.4995 9.7377C16.2801 9.56686 16.2084 9.7377 16.2759 10.0877C16.335 10.2877 16.4784 10.5044 16.8792 10.6544C17.1534 10.8085 16.9467 11.021 16.7442 11.0294C16.6303 11.0294 16.4025 10.896 16.2253 10.7044C15.9975 10.446 15.9806 10.2752 15.854 9.8752C15.7359 9.68353 15.5207 9.7752 15.5207 9.97519C15.6262 10.3752 15.7106 10.446 15.9215 10.6085C16.1198 10.796 15.7823 10.8585 15.6684 10.7794C15.3393 10.5627 15.2212 10.2794 15.1115 10.021C15.0271 9.8377 14.7993 9.9252 14.909 10.2294C15.1621 10.9544 15.584 11.2377 16.3139 11.3877C16.3856 11.4002 16.432 11.4419 16.4067 11.5252L16.1114 11.8169C16.5628 11.9502 16.9298 12.0252 17.3854 12.1502L18.0098 11.7419C18.0646 11.6085 18.0942 11.4002 18.4232 11.546C18.6426 11.446 18.7481 11.4835 18.8704 11.5877C18.6932 11.5877 18.6173 11.6377 18.5456 11.7169C18.4528 11.9544 18.2418 11.9794 18.0267 11.9127C17.8875 12.0252 17.8157 12.1169 17.6723 12.2335L18.3768 12.2127C18.63 11.9502 18.824 11.9627 19.0012 12.171C19.1404 12.1919 19.1953 12.1919 19.2881 12.3544C19.1446 12.296 19.0518 12.2794 18.9886 12.3419C18.7228 12.496 18.5498 12.4627 18.419 12.3419L17.6807 12.3877C17.7736 12.471 17.9001 12.5127 17.9971 12.5877C18.3768 12.4794 18.5793 12.6294 18.6468 12.9335C18.7002 13.0555 18.7177 13.1897 18.6975 13.321C18.6637 13.196 18.6004 13.0919 18.4907 13.0294C18.1532 13.1127 18.0267 12.9752 18.0056 12.7752C17.8368 12.6419 17.5921 12.6127 17.4276 12.4794C17.2336 12.5377 17.1407 12.5752 16.9467 12.6377C16.8792 12.846 16.7231 12.9252 16.47 12.871C16.1746 12.8794 16.2253 13.0044 16.2 13.1002C16.1156 12.9627 16.1198 12.8252 16.3054 12.7002C16.3729 12.521 16.5248 12.4377 16.7189 12.5419C16.9045 12.4919 16.9509 12.4169 17.1365 12.3627C16.6725 12.2169 16.3434 12.1835 15.8793 12.0377L15.5545 12.321C15.4912 12.3585 15.4321 12.3669 15.3942 12.321C15.1031 11.9044 14.9723 11.5419 14.7065 11.2669C14.6011 11.1502 14.4703 11.0002 14.3268 10.9627C14.2551 10.9419 14.1665 10.9544 14.1075 11.0169C14.0526 11.0752 14.0062 11.1877 14.0231 11.3585C14.0526 11.596 14.1117 11.6752 14.1792 11.8169C14.2509 11.9627 14.3311 12.0502 14.4196 12.1627C14.5884 12.3835 14.8162 12.5127 14.9512 12.6002C15.2212 12.771 15.3309 12.696 15.5418 12.6835C15.8118 12.7127 15.8793 12.8419 15.66 13.021C15.4575 13.1294 15.2718 13.1419 15.12 13.1127C14.9934 13.0877 14.8415 12.9252 14.7318 12.8377C14.6137 12.7002 14.4112 12.8627 14.5504 13.0252C14.7993 13.3169 15.044 13.5085 15.352 13.5044C15.6768 13.546 15.6136 13.7252 15.4026 13.8127C15.0145 13.9669 14.6686 13.6752 14.4914 13.4794C14.3564 13.3335 14.2593 13.3294 14.2804 13.5585C14.4196 13.971 14.6011 14.1294 14.9048 14.1502C15.1495 14.1252 15.1537 14.3169 14.9723 14.4419C14.5673 14.7169 14.272 14.2419 14.1328 13.9585C14.0357 13.7002 13.8839 13.821 13.867 14.0335C13.867 14.321 13.9936 14.5502 14.3437 14.8419C14.0779 15.2627 13.7657 15.6919 13.5 16.1127L12.69 7.19603L13.5 5.79186C13.5843 5.71686 13.8712 5.38353 13.9429 5.33353C13.9725 5.30853 13.9851 5.29186 13.9471 5.2752C13.9092 5.25853 13.8206 5.24186 13.7573 5.23353C13.9261 5.0627 14.0779 5.00853 14.4028 4.91686C14.3226 4.88353 14.2467 4.9002 14.0104 4.89186C14.1554 4.69949 14.353 4.55204 14.58 4.46686C14.4028 4.34186 14.369 4.33353 14.1918 4.1877C14.4713 4.16637 14.7474 4.11324 15.0145 4.02936C15.174 3.95449 15.3452 3.9066 15.5207 3.8877H15.525ZM15.4912 4.2377C15.3309 4.2377 15.2339 4.29186 15.2339 4.35853C15.2339 4.4252 15.3309 4.47936 15.4912 4.47936C15.6515 4.47936 15.7528 4.41686 15.7528 4.35436C15.7528 4.2877 15.6515 4.2377 15.4912 4.2377Z" fill="black"/>
  </g>
  <defs>
    <clipPath id="clip0_617_8602">
      <rect width="27" height="20" fill="white"/>
    </clipPath>
  </defs>
</svg>