<svg width="336" height="59" viewBox="0 0 336 59" fill="none" xmlns="http://www.w3.org/2000/svg">
<g clipPath="url(#clip0_1826_14839)">
<path d="M90.7488 32.7729V25.0216C90.684 24.4808 90.8208 23.9352 91.1333 23.4878C91.5831 23.1761 92.1325 23.0395 92.677 23.1039H93.0634C93.6075 23.0394 94.1565 23.176 94.6058 23.4878C94.9197 23.9346 95.0572 24.4805 94.9922 25.0216V32.8156C94.9922 34.7183 94.6646 36.117 94.0093 37.0117C93.3541 37.9065 92.211 38.4965 90.5799 38.7817C89.3772 38.995 88.157 39.095 86.9354 39.0802C82.4492 39.0802 79.2054 38.2351 77.2041 36.5448C75.2028 34.8546 74.2026 32.0934 74.2034 28.2613V21.4431C74.2034 17.9223 75.254 15.2243 77.3552 13.3494C79.4564 11.4744 82.5784 10.5375 86.721 10.5387C88.81 10.5103 90.8869 10.8566 92.8521 11.5611C93.3671 11.7127 93.8426 11.9743 94.2452 12.3276C94.4779 12.7572 94.5748 13.2464 94.5235 13.7314V14.3699C94.5235 15.1377 94.4094 15.6207 94.1813 15.8188C93.9532 16.017 93.4958 16.0027 92.8091 15.7761C90.8774 15.053 88.8275 14.6918 86.7634 14.711C83.8767 14.711 81.8335 15.2435 80.6336 16.3083C79.4337 17.3731 78.8338 19.1838 78.8338 21.7404V28.556C78.8338 30.7435 79.455 32.3408 80.6975 33.3479C81.9399 34.3549 84.0049 34.8589 86.8924 34.8597C87.6806 34.8783 88.469 34.8361 89.2506 34.7333C90.2502 34.5917 90.7504 33.9383 90.7513 32.7729" fill="#1B2443"/>
<path d="M108.925 39.0782C105.551 39.0782 103.065 38.3254 101.465 36.8199C99.8659 35.3144 99.0654 32.9998 99.0642 29.876V26.214C99.0642 20.0804 102.351 17.0137 108.925 17.0137C112.268 17.0137 114.733 17.7731 116.32 19.2921C117.906 20.811 118.699 23.1183 118.699 26.214V29.876C118.699 32.8871 117.877 35.1732 116.234 36.7345C114.591 38.2957 112.155 39.0767 108.925 39.0776M114.283 29.8766V26.2146C114.283 24.3408 113.89 23.0205 113.105 22.2535C112.319 21.4865 110.927 21.1032 108.928 21.1036C106.898 21.1036 105.483 21.4869 104.684 22.2535C103.884 23.0201 103.484 24.3404 103.483 26.2146V29.8766C103.483 31.7231 103.883 33.0293 104.684 33.795C105.484 34.5608 106.898 34.9441 108.928 34.9449C110.957 34.9449 112.357 34.569 113.129 33.817C113.9 33.0651 114.285 31.7516 114.286 29.8766" fill="#1B2443"/>
<path d="M127.316 25.2765V36.6899C127.398 36.9562 127.405 37.2394 127.337 37.5092C127.268 37.7791 127.128 38.0256 126.93 38.2223C126.732 38.419 126.484 38.5587 126.212 38.6263C125.941 38.694 125.656 38.6871 125.388 38.6064H124.829C124.561 38.6871 124.276 38.694 124.005 38.6263C123.733 38.5587 123.485 38.419 123.287 38.2223C123.089 38.0256 122.948 37.7791 122.88 37.5092C122.812 37.2394 122.819 36.9562 122.9 36.6899V25.2765C122.9 19.7679 125.801 17.0137 131.603 17.0137C134.746 17.0137 136.889 18.05 138.033 20.1228C139.176 18.0508 141.319 17.0145 144.464 17.0137C147.407 17.0137 149.587 17.6952 151.002 19.0583C152.417 20.4214 153.125 22.4943 153.124 25.2771V36.6905C153.205 36.9568 153.212 37.24 153.144 37.5098C153.076 37.7797 152.935 38.0262 152.737 38.2229C152.539 38.4196 152.291 38.5593 152.02 38.6269C151.748 38.6946 151.463 38.6877 151.195 38.607H150.637C150.369 38.6877 150.084 38.6946 149.812 38.6269C149.54 38.5593 149.292 38.4196 149.094 38.2229C148.896 38.0262 148.756 37.7797 148.688 37.5098C148.62 37.24 148.627 36.9568 148.708 36.6905V25.2765C148.708 23.7437 148.401 22.6654 147.786 22.0417C147.172 21.4179 146.064 21.1056 144.463 21.1048C142.892 21.1048 141.777 21.4244 141.119 22.0637C140.461 22.7029 140.134 23.7746 140.136 25.2789V36.6923C140.218 36.9586 140.224 37.2418 140.156 37.5117C140.088 37.7815 139.948 38.028 139.75 38.2247C139.552 38.4215 139.304 38.5611 139.032 38.6287C138.76 38.6964 138.475 38.6895 138.207 38.6088H137.778C137.51 38.6895 137.225 38.6964 136.953 38.6287C136.681 38.5611 136.433 38.4215 136.235 38.2247C136.037 38.028 135.897 37.7815 135.829 37.5117C135.761 37.2418 135.767 36.9586 135.849 36.6923V25.2765C135.849 23.7437 135.542 22.6654 134.927 22.0417C134.313 21.4179 133.206 21.1056 131.605 21.1048C130.005 21.1048 128.89 21.4171 128.261 22.0417C127.633 22.6663 127.318 23.7445 127.318 25.2765" fill="#1B2443"/>
<path d="M158.524 12.8815C158.264 12.6343 158.057 12.3366 157.917 12.007C157.777 11.6774 157.707 11.3228 157.71 10.965C157.704 10.6131 157.774 10.2639 157.914 9.94069C158.055 9.61746 158.262 9.32752 158.524 9.09007C158.773 8.83144 159.073 8.62626 159.404 8.48717C159.736 8.34807 160.093 8.27803 160.453 8.28136C161.164 8.30164 161.839 8.59108 162.342 9.09039C162.844 9.58969 163.136 10.261 163.156 10.9669C163.159 11.3247 163.089 11.6793 162.949 12.0089C162.809 12.3386 162.602 12.6361 162.342 12.8833C162.096 13.1323 161.802 13.3287 161.478 13.4606C161.153 13.5924 160.805 13.6568 160.455 13.6499C160.098 13.6545 159.744 13.5891 159.413 13.4576C159.082 13.326 158.78 13.1309 158.525 12.8833M158.225 36.694V19.3988C158.16 18.8577 158.297 18.3117 158.611 17.865C159.062 17.5531 159.612 17.4168 160.157 17.4823H160.713C161.258 17.4175 161.807 17.5537 162.257 17.865C162.57 18.3119 162.707 18.8579 162.642 19.3988V36.6928C162.708 37.2335 162.571 37.7794 162.257 38.226C161.807 38.5379 161.258 38.6745 160.713 38.6099H160.157C159.612 38.6748 159.063 38.5381 158.613 38.226C158.299 37.7796 158.161 37.2337 158.227 36.6928" fill="#1B2443"/>
<path d="M167.141 36.2664V35.7135C167.074 35.2116 167.196 34.7029 167.484 34.2853C167.713 34.0735 168.17 34.0515 168.857 34.2242C170.897 34.7688 173.002 35.0408 175.115 35.0329C176.161 35.0954 177.209 34.9583 178.202 34.6289C178.484 34.5149 178.722 34.3158 178.884 34.0597C179.045 33.8036 179.122 33.5035 179.102 33.2019C179.11 32.9549 179.065 32.7091 178.969 32.4811C178.873 32.2532 178.728 32.0485 178.545 31.8811C177.879 31.3693 177.143 30.9535 176.359 30.6458L171.729 28.6011C170.46 28.1183 169.333 27.3274 168.451 26.3007C167.755 25.2722 167.416 24.0462 167.486 22.809C167.486 20.8213 168.143 19.3589 169.457 18.4218C170.772 17.4848 172.844 17.0168 175.674 17.018C177.353 17.0062 179.026 17.221 180.647 17.6565C181.194 17.7672 181.704 18.017 182.125 18.3815C182.383 18.8023 182.496 19.2951 182.447 19.7853V20.2974C182.516 20.8018 182.386 21.3133 182.082 21.7238C181.84 21.9374 181.376 21.9447 180.689 21.7458C179.032 21.2758 177.314 21.046 175.591 21.0634C174.601 21.0031 173.61 21.1407 172.675 21.4681C172.41 21.5768 172.185 21.7641 172.031 22.0044C171.877 22.2447 171.802 22.5263 171.815 22.8108C171.791 23.2558 171.946 23.6921 172.245 24.0242C172.711 24.4357 173.248 24.7604 173.83 24.983L178.806 27.1125C180.172 27.5912 181.39 28.4124 182.342 29.4965C183.088 30.554 183.458 31.8281 183.393 33.1177C183.393 35.1619 182.7 36.6674 181.313 37.6342C179.927 38.601 177.733 39.084 174.732 39.0832C172.752 39.0888 170.778 38.8452 168.86 38.3581C168.341 38.2625 167.859 38.0268 167.467 37.6769C167.209 37.2563 167.095 36.7635 167.145 36.2731" fill="#1B2443"/>
<path d="M185.873 20.08V19.6528C185.829 19.219 185.935 18.7833 186.174 18.4175C186.497 18.1317 186.901 17.953 187.331 17.906L189.604 17.4787L190.119 13.4737C190.132 13.0211 190.298 12.5861 190.59 12.2383C190.973 11.9989 191.426 11.8942 191.876 11.9411H192.433C192.87 11.8881 193.311 11.9937 193.676 12.2383C193.923 12.6007 194.03 13.0394 193.977 13.4737V17.4787H199.977C200.482 17.4216 200.99 17.5419 201.415 17.8187C201.715 18.239 201.845 18.756 201.779 19.267V19.784C201.845 20.2951 201.715 20.8122 201.415 21.2324C200.991 21.5103 200.482 21.6311 199.977 21.5735H193.976V31.2401C193.976 33.7108 195.091 34.9457 197.32 34.9449C198.489 34.9586 199.655 34.8301 200.793 34.5622C201.506 34.4206 201.977 34.4491 202.205 34.6477C202.496 35.0549 202.619 35.5572 202.549 36.0515V36.5635C202.597 37.0842 202.477 37.6067 202.205 38.0546C201.818 38.416 201.321 38.6403 200.793 38.693C199.647 38.9041 198.485 39.0182 197.32 39.0342C192.176 39.0342 189.604 36.4215 189.604 31.1962V21.5711H187.374C186.951 21.6216 186.524 21.5153 186.174 21.2726C185.93 20.9251 185.823 20.5007 185.874 20.08" fill="#1B2443"/>
<path d="M223.899 25.8313C223.899 25.9452 223.87 26.5698 223.812 27.705C223.813 28.2782 223.617 28.8344 223.256 29.2816C222.772 29.5899 222.197 29.7247 221.626 29.6636H209.709V30.6005C209.709 32.1634 210.188 33.2783 211.145 33.9452C212.102 34.6121 213.667 34.9455 215.84 34.9455C217.719 34.943 219.59 34.7142 221.412 34.2644C222.099 34.0939 222.563 34.1143 222.806 34.3254C223.11 34.7365 223.24 35.2486 223.171 35.7536V36.3066C223.225 36.8045 223.112 37.3063 222.849 37.7336C222.436 38.0739 221.941 38.3015 221.412 38.394C219.595 38.8722 217.72 39.1018 215.84 39.0763C212.21 39.0763 209.544 38.3439 207.844 36.8791C206.145 35.4143 205.294 33.107 205.294 29.9572V26.2561C205.294 20.0953 208.468 17.0145 214.815 17.0137C217.787 17.0137 220.044 17.7589 221.588 19.2494C223.131 20.7398 223.903 22.9338 223.903 25.8313M209.713 25.022V26.087H219.742V25.022C219.742 22.2099 218.056 20.8039 214.684 20.8039C211.367 20.8039 209.709 22.2099 209.709 25.022" fill="#1B2443"/>
<path d="M232.515 24.8504V36.691C232.596 36.9573 232.603 37.2405 232.535 37.5103C232.467 37.7802 232.326 38.0267 232.128 38.2234C231.93 38.4201 231.682 38.5598 231.411 38.6274C231.139 38.6951 230.854 38.6882 230.586 38.6075H230.028C229.76 38.6883 229.475 38.6953 229.203 38.6277C228.932 38.5602 228.684 38.4205 228.485 38.2238C228.287 38.027 228.147 37.7805 228.079 37.5106C228.011 37.2406 228.018 36.9573 228.099 36.691V24.5519C228.099 19.5259 230.799 17.0128 236.2 17.0123C236.488 16.9995 236.776 17.0139 237.06 17.0551C237.582 17.0663 238.086 17.2453 238.497 17.5653C238.791 18.0042 238.92 18.5322 238.861 19.0564V19.6539C238.928 20.1349 238.805 20.6231 238.517 21.0156C238.289 21.215 237.803 21.2577 237.061 21.1438C236.776 21.1025 236.488 21.0882 236.201 21.101C234.83 21.101 233.873 21.3859 233.329 21.9555C232.785 22.5252 232.514 23.4909 232.515 24.8528" fill="#1B2443"/>
<path d="M242.76 12.8815C242.5 12.6343 242.294 12.3367 242.154 12.007C242.014 11.6774 241.943 11.3228 241.946 10.965C241.941 10.6131 242.01 10.2639 242.151 9.94071C242.291 9.61749 242.499 9.32755 242.76 9.09007C243.009 8.83142 243.309 8.62621 243.641 8.48712C243.973 8.34802 244.33 8.278 244.69 8.28137C245.4 8.3015 246.076 8.59089 246.578 9.09023C247.081 9.58956 247.372 10.261 247.393 10.9669C247.396 11.3246 247.325 11.6793 247.185 12.0089C247.045 12.3385 246.839 12.6361 246.579 12.8833C246.333 13.1322 246.039 13.3284 245.714 13.4599C245.389 13.5914 245.04 13.6555 244.69 13.6481C244.333 13.6526 243.979 13.5872 243.648 13.4557C243.317 13.3241 243.016 13.129 242.761 12.8815M242.46 36.6922V19.3988C242.395 18.8577 242.533 18.3117 242.847 17.865C243.297 17.5535 243.846 17.4173 244.391 17.4823H244.947C245.491 17.4176 246.041 17.5538 246.491 17.865C246.804 18.3119 246.941 18.8579 246.876 19.3988V36.6928C246.942 37.2335 246.804 37.7794 246.491 38.226C246.041 38.5378 245.492 38.6745 244.947 38.6099H244.391C243.846 38.6745 243.296 38.5376 242.847 38.2254C242.533 37.779 242.395 37.2331 242.46 36.6922Z" fill="#1B2443"/>
<path d="M268.782 23.999V32.2619C268.782 34.6186 268.054 36.3438 266.596 37.4376C265.139 38.5313 262.825 39.078 259.655 39.0776C253.852 39.0776 250.951 36.8911 250.953 32.5182C250.953 30.3031 251.674 28.6773 253.117 27.641C254.559 26.6046 256.753 26.0864 259.698 26.0864H264.413V23.999C264.462 23.5136 264.378 23.024 264.171 22.5818C263.963 22.1396 263.64 21.7609 263.234 21.4857C262.448 21.0027 261.154 20.761 259.355 20.7606C257.845 20.7424 256.338 20.871 254.853 21.1445C254.647 21.214 254.428 21.2405 254.21 21.2223C253.993 21.2041 253.781 21.1417 253.589 21.0389C253.321 20.6777 253.205 20.2263 253.268 19.7816V19.1859C253.221 18.7291 253.335 18.2702 253.589 17.8871C253.93 17.5865 254.357 17.4003 254.811 17.3549C256.229 17.1352 257.662 17.0211 259.097 17.0137C262.355 17.0137 264.785 17.5673 266.386 18.6744C267.987 19.7816 268.787 21.5569 268.786 24.0003M264.413 32.0501V29.4085H259.698C258.56 29.3271 257.422 29.5706 256.418 30.1104C256.057 30.375 255.771 30.7273 255.587 31.1335C255.403 31.5397 255.328 31.9861 255.368 32.4297C255.328 32.8624 255.402 33.298 255.582 33.6939C255.763 34.0898 256.043 34.4323 256.397 34.688C257.368 35.2095 258.468 35.4456 259.569 35.3685C261.312 35.3685 262.555 35.1272 263.298 34.6446C264.04 34.1621 264.412 33.2958 264.413 32.0458" fill="#1B2443"/>
<path d="M273.755 12.8815C273.494 12.6344 273.288 12.3368 273.147 12.0072C273.007 11.6776 272.936 11.3229 272.94 10.965C272.934 10.6131 273.004 10.2639 273.144 9.94071C273.284 9.61748 273.492 9.32754 273.753 9.09006C274.002 8.83149 274.302 8.62632 274.634 8.48723C274.965 8.34814 275.322 8.27808 275.682 8.28136C276.393 8.30164 277.068 8.59108 277.571 9.09038C278.073 9.58969 278.365 10.261 278.385 10.9669C278.388 11.3247 278.318 11.6793 278.178 12.0089C278.037 12.3385 277.831 12.6361 277.571 12.8833C277.325 13.1323 277.031 13.3287 276.707 13.4605C276.382 13.5923 276.034 13.6568 275.683 13.6499C275.327 13.6545 274.973 13.5891 274.642 13.4576C274.311 13.326 274.01 13.1309 273.755 12.8833M273.454 36.694V19.3988C273.389 18.8577 273.527 18.3118 273.841 17.865C274.291 17.5536 274.84 17.4174 275.384 17.4823H275.941C276.485 17.4176 277.035 17.5538 277.485 17.865C277.798 18.3119 277.935 18.8579 277.87 19.3988V36.6928C277.935 37.2335 277.798 37.7793 277.485 38.226C277.035 38.5378 276.485 38.6745 275.941 38.6099H275.384C274.84 38.6747 274.29 38.538 273.841 38.226C273.527 37.7795 273.389 37.2337 273.454 36.6928" fill="#1E8CA5"/>
<path d="M287.388 25.2765V36.6899C287.469 36.9562 287.476 37.2395 287.408 37.5094C287.34 37.7794 287.2 38.026 287.002 38.2228C286.804 38.4196 286.555 38.5592 286.284 38.6268C286.012 38.6943 285.727 38.6873 285.459 38.6064H284.901C284.633 38.6871 284.348 38.694 284.076 38.6263C283.804 38.5587 283.556 38.419 283.358 38.2223C283.16 38.0256 283.02 37.7791 282.952 37.5092C282.884 37.2394 282.891 36.9562 282.972 36.6899V25.2765C282.972 19.7679 285.873 17.0137 291.674 17.0137C294.817 17.0137 296.961 18.05 298.104 20.1228C299.247 18.0508 301.39 17.0145 304.535 17.0137C307.479 17.0137 309.658 17.6952 311.073 19.0583C312.489 20.4214 313.196 22.4943 313.195 25.2771V36.6905C313.276 36.9568 313.283 37.24 313.215 37.5098C313.147 37.7797 313.007 38.0262 312.809 38.2229C312.611 38.4196 312.363 38.5593 312.091 38.6269C311.819 38.6946 311.534 38.6877 311.266 38.607H310.708C310.44 38.6877 310.155 38.6946 309.883 38.6269C309.612 38.5593 309.364 38.4196 309.166 38.2229C308.968 38.0262 308.827 37.7797 308.759 37.5098C308.691 37.24 308.698 36.9568 308.779 36.6905V25.2765C308.779 23.7437 308.472 22.6654 307.858 22.0417C307.243 21.4179 306.136 21.1056 304.535 21.1048C302.963 21.1048 301.848 21.4244 301.19 22.0637C300.533 22.7029 300.205 23.7746 300.208 25.2789V36.6923C300.289 36.9586 300.296 37.2418 300.228 37.5117C300.16 37.7815 300.019 38.028 299.821 38.2247C299.623 38.4215 299.375 38.5611 299.103 38.6287C298.832 38.6964 298.547 38.6895 298.279 38.6088H297.849C297.581 38.6895 297.296 38.6964 297.024 38.6287C296.753 38.5611 296.505 38.4215 296.307 38.2247C296.109 38.028 295.968 37.7815 295.9 37.5117C295.832 37.2418 295.839 36.9586 295.92 36.6923V25.2765C295.92 23.7437 295.613 22.6654 294.999 22.0417C294.384 21.4179 293.277 21.1056 291.677 21.1048C290.076 21.1048 288.962 21.4171 288.333 22.0417C287.704 22.6663 287.39 23.7445 287.39 25.2765" fill="#1E8CA5"/>
<path d="M336.001 25.8313C336.001 25.9452 335.972 26.5698 335.915 27.705C335.915 28.2781 335.719 28.8342 335.358 29.2816C334.875 29.5899 334.3 29.7247 333.729 29.6636H321.812V30.6005C321.812 32.1634 322.29 33.2783 323.248 33.9452C324.205 34.6121 325.77 34.9455 327.943 34.9455C329.822 34.943 331.693 34.7143 333.515 34.2644C334.202 34.0941 334.666 34.1161 334.91 34.3254C335.213 34.7366 335.344 35.2486 335.274 35.7536V36.3066C335.329 36.8044 335.216 37.3062 334.953 37.7336C334.54 38.074 334.045 38.3016 333.516 38.394C331.699 38.8723 329.824 39.1018 327.944 39.0763C324.313 39.0763 321.648 38.3439 319.948 36.8791C318.248 35.4143 317.398 33.107 317.397 29.9572V26.2561C317.397 20.0953 320.57 17.0145 326.915 17.0137C329.887 17.0137 332.144 17.7589 333.687 19.2494C335.231 20.7398 336.002 22.9338 336.001 25.8313ZM321.811 25.022V26.087H331.843V25.022C331.843 22.2099 330.157 20.8039 326.785 20.8039C323.468 20.8039 321.809 22.2099 321.809 25.022" fill="#1E8CA5"/>
<path d="M58.3826 36.0897L60.4336 25.0828C60.0333 25.0324 59.6302 25.0067 59.2266 25.0059H38.4071C37.9499 25.017 37.5145 25.2024 37.1911 25.5237C36.8678 25.8451 36.6811 26.2776 36.6699 26.7319V33.0306C36.6811 33.4849 36.8678 33.9175 37.1911 34.2388C37.5145 34.5601 37.9499 34.7456 38.4071 34.7567H48.6335C48.7414 34.7571 48.8476 34.7838 48.9426 34.8345C49.0377 34.8852 49.1188 34.9584 49.1787 35.0475C49.2387 35.1367 49.2757 35.2391 49.2864 35.3458C49.2972 35.4525 49.2813 35.5602 49.2404 35.6594C49.097 35.9849 48.9468 36.3047 48.7895 36.6189C48.6824 36.8277 48.631 37.0603 48.6402 37.2945C48.6495 37.5288 48.7191 37.7567 48.8424 37.9565C48.9657 38.1564 49.1385 38.3214 49.3443 38.4359C49.5502 38.5504 49.7821 38.6105 50.018 38.6104H55.7885C56.9624 38.6104 58.1227 37.4819 58.3826 36.0903" fill="#1E8CA5"/>
<path d="M3.00563 27.893H9.84985C10.1948 27.8901 10.5254 27.7553 10.7731 27.5167C11.0207 27.278 11.1663 26.9538 11.1797 26.6112C11.3592 23.2556 12.379 19.9976 14.1466 17.1327C15.9141 14.2677 18.3735 11.8866 21.3017 10.2052C24.38 8.406 27.8905 7.46693 31.4618 7.48736L33.7192 7.57342C33.9245 7.59633 34.1323 7.57879 34.3308 7.52181C34.5293 7.46483 34.7145 7.36952 34.8758 7.24135C35.0372 7.11317 35.1715 6.95464 35.2711 6.77483C35.3707 6.59502 35.4337 6.39745 35.4564 6.19343L35.5577 5.64412L32.5374 2.54297L31.3451 1.30703C30.9372 0.887616 30.4474 0.555378 29.9058 0.330678C29.3641 0.105978 28.782 -0.00644934 28.1951 0.000285648H17.0534L16.175 0.224281C11.1608 2.95646 7.00017 7.0071 4.14879 11.9325C1.69222 16.1138 0.270272 20.8151 0 25.6493C0.187026 26.2973 0.58171 26.867 1.12415 27.2719C1.66659 27.6769 2.32717 27.8949 3.00563 27.893Z" fill="#1B2443"/>
<path d="M49.7658 42.5592H45.2159C44.7989 42.5612 44.3984 42.7212 44.0961 43.0066C43.6122 43.4604 43.1043 43.8882 42.5746 44.2883C40.0772 46.1671 37.1185 47.3461 34.0067 47.7026C32.8259 47.8725 31.7295 48.4089 30.8739 49.2351L22.7072 56.818C22.6262 56.8933 22.5667 56.9885 22.5347 57.0939C22.5026 57.1994 22.4992 57.3114 22.5247 57.4186C22.5502 57.5258 22.6037 57.6244 22.6799 57.7045C22.756 57.7846 22.8521 57.8432 22.9584 57.8745C25.728 58.629 28.5876 59.0076 31.4593 59C36.8638 59.0741 42.1785 57.6231 46.786 54.8155C49.251 53.2924 51.4715 51.4096 53.3729 49.2303C53.5729 49.0012 53.7075 48.723 53.7623 48.4246L54.1186 46.513C54.5314 44.2956 52.6204 42.5586 49.7658 42.5586" fill="#1B2443"/>
<path d="M21.2992 45.1518C18.2156 43.3827 15.655 40.8384 13.8745 37.7746C12.9448 36.1843 12.2472 34.4708 11.8025 32.6855C11.748 32.4558 11.6173 32.251 11.4314 32.104C11.2456 31.957 11.0154 31.8764 10.7779 31.875H1.06198C0.95225 31.8743 0.843669 31.8973 0.743794 31.9425C0.643918 31.9876 0.555145 32.0539 0.483648 32.1366C0.41215 32.2193 0.359645 32.3165 0.329783 32.4214C0.299921 32.5264 0.293419 32.6365 0.310729 32.7441C0.966436 36.4962 2.26455 40.1089 4.1487 43.4251C6.88863 48.162 10.8438 52.0921 15.611 54.8147C16.17 55.1376 16.737 55.4373 17.3082 55.7229L25.096 48.4928C25.23 48.3697 25.3298 48.2143 25.3857 48.0417C25.4415 47.8691 25.4516 47.685 25.4149 47.5074C25.3782 47.3298 25.296 47.1645 25.1762 47.0277C25.0564 46.8909 24.9031 46.7872 24.7311 46.7265C23.5391 46.3109 22.3899 45.783 21.2992 45.15" fill="#1B2443"/>
<path d="M48.1423 17.3467L51.3151 20.634C51.4429 20.7665 51.5965 20.872 51.7664 20.9441C51.9364 21.0161 52.1193 21.0533 52.304 21.0533H59.7619C60.1228 21.011 60.4594 20.8512 60.7192 20.5988C60.979 20.3464 61.1474 20.0156 61.1981 19.6581L62.4991 12.6745C62.6429 11.9043 62.2325 11.2793 61.5826 11.2793H54.1241C53.712 11.2908 53.3146 11.4344 52.9914 11.6888L48.3174 15.183C48.1524 15.3063 48.0156 15.463 47.916 15.6427C47.8164 15.8224 47.7563 16.021 47.7396 16.2255C47.723 16.43 47.7501 16.6356 47.8193 16.8289C47.8886 17.0222 47.9982 17.1987 48.1411 17.3467" fill="#1E8CA5"/>
<path d="M304.222 50.7512C304.091 50.7516 303.962 50.7264 303.842 50.677C303.721 50.6277 303.612 50.5551 303.52 50.4636C303.428 50.372 303.355 50.2633 303.305 50.1436C303.255 50.0239 303.23 49.8956 303.23 49.7661C303.232 49.5712 303.291 49.381 303.401 49.2195C303.511 49.058 303.666 48.9322 303.848 48.8579C304.029 48.7837 304.229 48.7642 304.421 48.802C304.614 48.8398 304.791 48.9331 304.93 49.0703C305.11 49.2579 305.211 49.5075 305.211 49.767C305.211 50.0266 305.11 50.2761 304.93 50.4637C304.838 50.5577 304.728 50.6317 304.606 50.6812C304.484 50.7306 304.353 50.7545 304.221 50.7512" fill="#1E8CA5"/>
<path d="M310.059 50.7809C309.445 50.7782 308.839 50.6353 308.289 50.3632C307.74 50.0911 307.26 49.6971 306.888 49.2116C306.516 48.7261 306.261 48.1621 306.143 47.5631C306.026 46.9642 306.048 46.3464 306.209 45.7574C306.37 45.1684 306.664 44.624 307.071 44.1663C307.477 43.7086 307.984 43.3498 308.552 43.1177C309.12 42.8855 309.734 42.7862 310.347 42.8275C310.959 42.8687 311.554 43.0493 312.086 43.3554C312.667 43.6946 313.133 44.1979 313.426 44.8013L312.314 45.4367C312.121 45.0331 311.81 44.6959 311.423 44.4681C310.907 44.1729 310.307 44.053 309.716 44.1267C309.125 44.2004 308.574 44.4636 308.147 44.8764C307.653 45.3933 307.378 46.0789 307.378 46.7916C307.378 47.5044 307.653 48.19 308.147 48.7069C308.395 48.9595 308.693 49.1585 309.022 49.2914C309.351 49.4244 309.704 49.4885 310.059 49.4796C310.54 49.487 311.014 49.364 311.43 49.1238C311.826 48.8982 312.149 48.5649 312.36 48.1631L313.488 48.8131C313.163 49.4098 312.677 49.9052 312.086 50.2444C311.472 50.6038 310.771 50.7895 310.059 50.7815" fill="#1E8CA5"/>
<path d="M321.121 49.6316C320.559 50.184 319.845 50.5588 319.068 50.7089C318.292 50.8589 317.489 50.7774 316.759 50.4747C316.029 50.172 315.406 49.6616 314.968 49.0078C314.53 48.354 314.296 47.5859 314.296 46.8002C314.296 46.0146 314.53 45.2465 314.968 44.5927C315.406 43.9388 316.029 43.4284 316.759 43.1258C317.489 42.8231 318.292 42.7416 319.068 42.8916C319.845 43.0417 320.559 43.4165 321.121 43.9689C321.873 44.7219 322.295 45.7396 322.295 46.8002C322.295 47.8609 321.873 48.8786 321.121 49.6316ZM318.272 49.4949C318.884 49.4881 319.475 49.271 319.945 48.8803C320.415 48.4897 320.734 47.9496 320.848 47.3518C320.962 46.754 320.865 46.1353 320.573 45.6007C320.28 45.0661 319.81 44.6485 319.243 44.4189C318.676 44.1893 318.046 44.1618 317.461 44.3411C316.876 44.5203 316.371 44.8953 316.032 45.4023C315.694 45.9093 315.542 46.5172 315.603 47.1227C315.664 47.7282 315.934 48.294 316.368 48.724C316.616 48.974 316.913 49.1711 317.24 49.3036C317.568 49.4362 317.919 49.5012 318.272 49.4949Z" fill="#1E8CA5"/>
<path d="M332.093 42.8193C332.478 42.804 332.861 42.8697 333.219 43.0119C333.576 43.1541 333.899 43.3696 334.166 43.6445C334.717 44.2556 335.002 45.0585 334.959 45.8777V50.5865H333.632V45.9229C333.664 45.4271 333.5 44.9385 333.176 44.5606C333.019 44.3976 332.83 44.2697 332.62 44.1855C332.41 44.1012 332.184 44.0627 331.958 44.0723C331.702 44.0616 331.447 44.1071 331.211 44.2054C330.976 44.3037 330.765 44.4525 330.593 44.6412C330.215 45.137 330.034 45.7538 330.083 46.3739V50.5853H328.757V45.9217C328.788 45.4298 328.633 44.944 328.323 44.5594C328.175 44.3966 327.992 44.2684 327.788 44.1839C327.584 44.0995 327.364 44.061 327.143 44.0711C326.883 44.0644 326.624 44.1122 326.384 44.2114C326.144 44.3106 325.927 44.4589 325.748 44.6467C325.343 45.1276 325.143 45.7471 325.191 46.3727V50.5841H323.867V43.0158H325.191V44.0302C325.426 43.6444 325.761 43.3284 326.161 43.1154C326.561 42.9025 327.011 42.8004 327.464 42.8199C327.923 42.795 328.379 42.9034 328.777 43.132C329.175 43.3606 329.497 43.6995 329.704 44.1071C329.946 43.6953 330.297 43.3574 330.719 43.1303C331.141 42.9033 331.617 42.7959 332.096 42.8199" fill="#1E8CA5"/>
</g>
<defs>
<clipPath id="clip0_1826_14839">
<rect width="336" height="59" fill="white"/>
</clipPath>
</defs>
</svg>
