<svg xmlns="http://www.w3.org/2000/svg" width="226" height="40" viewBox="0 0 226 40" fill="none">
  <g clipPath="url(#clip0_1830_17563)">
    <path d="M61.0399 22.2177V16.9625C60.9963 16.5959 61.0883 16.226 61.2985 15.9227C61.6011 15.7114 61.9706 15.6188 62.3368 15.6624H62.5967C62.9627 15.6187 63.332 15.7113 63.6342 15.9227C63.8453 16.2256 63.9378 16.5957 63.8941 16.9625V22.2467C63.8941 23.5366 63.6737 24.4849 63.233 25.0915C62.7923 25.6981 62.0234 26.0981 60.9263 26.2915C60.1173 26.4361 59.2966 26.5038 58.4749 26.4938C55.4574 26.4938 53.2756 25.9209 51.9295 24.7749C50.5834 23.629 49.9106 21.757 49.9111 19.1589V14.5365C49.9111 12.1495 50.6178 10.3204 52.0311 9.04919C53.4444 7.77802 55.5443 7.14285 58.3307 7.14368C59.7358 7.12437 61.1328 7.35917 62.4546 7.83678C62.801 7.93956 63.1209 8.11694 63.3917 8.3565C63.5481 8.6477 63.6134 8.97935 63.5788 9.30822V9.74105C63.5788 10.2616 63.5021 10.589 63.3487 10.7234C63.1953 10.8577 62.8876 10.8481 62.4257 10.6944C61.1264 10.2042 59.7476 9.95935 58.3592 9.97236C56.4176 9.97236 55.0433 10.3333 54.2362 11.0553C53.4292 11.7772 53.0256 13.0048 53.0256 14.738V19.3588C53.0256 20.8418 53.4435 21.9247 54.2792 22.6075C55.1149 23.2902 56.5038 23.6319 58.446 23.6324C58.9761 23.6451 59.5065 23.6164 60.0322 23.5468C60.7045 23.4508 61.041 23.0078 61.0416 22.2177" fill="white"/>
    <path d="M73.265 26.4941C70.9962 26.4941 69.3238 25.9838 68.2479 24.9631C67.172 23.9424 66.6336 22.3732 66.6328 20.2554V17.7727C66.6328 13.6143 68.8436 11.5352 73.265 11.5352C75.5141 11.5352 77.1721 12.0501 78.2392 13.0798C79.3063 14.1096 79.8397 15.6739 79.8394 17.7727V20.2554C79.8394 22.2968 79.2869 23.8467 78.1818 24.9052C77.0767 25.9637 75.4378 26.4932 73.265 26.4937M76.8691 20.2558V17.7731C76.8691 16.5027 76.605 15.6076 76.0767 15.0876C75.5484 14.5676 74.6118 14.3077 73.2671 14.308C71.9017 14.308 70.9502 14.5678 70.4125 15.0876C69.8748 15.6073 69.6057 16.5024 69.6052 17.7731V20.2558C69.6052 21.5077 69.8743 22.3932 70.4125 22.9124C70.9507 23.4315 71.9023 23.6914 73.2671 23.6919C74.6322 23.6919 75.5741 23.437 76.0928 22.9273C76.6115 22.4175 76.8709 21.527 76.8712 20.2558" fill="white"/>
    <path d="M85.6351 17.1351V24.873C85.6897 25.0535 85.6944 25.2455 85.6486 25.4285C85.6028 25.6115 85.5083 25.7785 85.3751 25.9119C85.2419 26.0453 85.0751 26.14 84.8924 26.1858C84.7097 26.2317 84.518 26.227 84.3377 26.1723H83.9622C83.7819 26.227 83.5902 26.2317 83.4075 26.1858C83.2248 26.14 83.058 26.0453 82.9248 25.9119C82.7917 25.7785 82.6971 25.6115 82.6513 25.4285C82.6055 25.2455 82.6102 25.0535 82.6648 24.873V17.1351C82.6648 13.4005 84.616 11.5332 88.5182 11.5332C90.6323 11.5332 92.074 12.2358 92.8433 13.6411C93.6118 12.2364 95.0536 11.5338 97.1688 11.5332C99.1487 11.5332 100.615 11.9953 101.567 12.9194C102.519 13.8435 102.994 15.2489 102.994 17.1355V24.8734C103.048 25.054 103.053 25.2459 103.007 25.4289C102.961 25.6119 102.867 25.779 102.734 25.9123C102.6 26.0457 102.434 26.1404 102.251 26.1862C102.068 26.2321 101.877 26.2274 101.696 26.1727H101.321C101.14 26.2274 100.949 26.2321 100.766 26.1862C100.583 26.1404 100.417 26.0457 100.283 25.9123C100.15 25.779 100.056 25.6119 100.01 25.4289C99.9641 25.2459 99.9688 25.054 100.023 24.8734V17.1351C100.023 16.0959 99.8168 15.3649 99.4036 14.942C98.9905 14.5191 98.2454 14.3074 97.1684 14.3069C96.1112 14.3069 95.3614 14.5235 94.9191 14.9569C94.4767 15.3903 94.2563 16.1169 94.258 17.1368V24.8747C94.3126 25.0552 94.3173 25.2472 94.2715 25.4301C94.2257 25.6131 94.1312 25.7802 93.998 25.9136C93.8648 26.047 93.698 26.1416 93.5153 26.1875C93.3326 26.2334 93.1409 26.2287 92.9606 26.174H92.6714C92.4912 26.2287 92.2995 26.2334 92.1168 26.1875C91.9341 26.1416 91.7672 26.047 91.6341 25.9136C91.5009 25.7802 91.4064 25.6131 91.3606 25.4301C91.3148 25.2472 91.3194 25.0552 91.374 24.8747V17.1351C91.374 16.0959 91.1675 15.3649 90.7543 14.942C90.3411 14.5191 89.5963 14.3074 88.5199 14.3069C87.4431 14.3069 86.6934 14.5186 86.2706 14.942C85.8478 15.3655 85.6363 16.0965 85.6363 17.1351" fill="white"/>
    <path d="M106.626 8.73211C106.451 8.56448 106.312 8.3627 106.218 8.13924C106.124 7.91577 106.076 7.67534 106.078 7.4328C106.075 7.19418 106.121 6.95746 106.216 6.73832C106.31 6.51918 106.45 6.32262 106.626 6.16163C106.793 5.98629 106.995 5.84718 107.218 5.75288C107.441 5.65859 107.681 5.6111 107.924 5.61336C108.401 5.6271 108.856 5.82334 109.194 6.16185C109.532 6.50036 109.728 6.95551 109.742 7.43404C109.744 7.67661 109.696 7.91705 109.602 8.14053C109.508 8.364 109.369 8.56576 109.194 8.73335C109.029 8.90212 108.831 9.03529 108.613 9.12467C108.394 9.21405 108.16 9.25775 107.924 9.25307C107.685 9.25616 107.447 9.21184 107.224 9.12266C107.001 9.03348 106.798 8.90118 106.627 8.73335M106.425 24.8762V13.1506C106.381 12.7837 106.473 12.4136 106.684 12.1107C106.987 11.8993 107.357 11.8069 107.724 11.8513H108.098C108.464 11.8074 108.834 11.8997 109.137 12.1107C109.347 12.4137 109.44 12.7839 109.396 13.1506V24.8754C109.44 25.242 109.348 25.612 109.137 25.9148C108.834 26.1263 108.465 26.2189 108.098 26.1751H107.724C107.358 26.219 106.988 26.1264 106.686 25.9148C106.474 25.6122 106.382 25.2421 106.426 24.8754" fill="white"/>
    <path d="M112.422 24.5872V24.2123C112.377 23.872 112.459 23.5272 112.653 23.244C112.807 23.1004 113.114 23.0855 113.576 23.2026C114.949 23.5718 116.365 23.7562 117.786 23.7509C118.489 23.7933 119.194 23.7003 119.862 23.477C120.052 23.3997 120.212 23.2647 120.321 23.0911C120.429 22.9174 120.481 22.714 120.467 22.5095C120.473 22.3421 120.442 22.1754 120.378 22.0209C120.313 21.8663 120.216 21.7276 120.093 21.6141C119.645 21.2671 119.15 20.9852 118.623 20.7766L115.508 19.3904C114.655 19.063 113.897 18.5268 113.303 17.8308C112.835 17.1335 112.607 16.3023 112.654 15.4635C112.654 14.1159 113.096 13.1245 113.98 12.4891C114.864 11.8538 116.258 11.5366 118.162 11.5374C119.291 11.5294 120.416 11.675 121.507 11.9703C121.875 12.0453 122.218 12.2147 122.501 12.4618C122.675 12.7471 122.75 13.0812 122.717 13.4136V13.7607C122.764 14.1027 122.676 14.4495 122.472 14.7278C122.309 14.8726 121.997 14.8776 121.535 14.7427C120.42 14.4241 119.265 14.2683 118.106 14.28C117.44 14.2392 116.773 14.3325 116.144 14.5544C115.966 14.6281 115.815 14.7551 115.712 14.918C115.608 15.0809 115.557 15.2718 115.566 15.4647C115.55 15.7664 115.654 16.0622 115.855 16.2873C116.169 16.5663 116.53 16.7865 116.922 16.9374L120.268 18.3811C121.187 18.7057 122.006 19.2624 122.647 19.9974C123.148 20.7144 123.397 21.5782 123.354 22.4524C123.354 23.8383 122.888 24.859 121.955 25.5145C121.022 26.1699 119.547 26.4974 117.528 26.4968C116.196 26.5007 114.869 26.3355 113.578 26.0052C113.23 25.9405 112.905 25.7807 112.642 25.5434C112.468 25.2583 112.392 24.9242 112.425 24.5917" fill="white"/>
    <path d="M125.021 13.6129V13.3233C124.992 13.0292 125.063 12.7338 125.224 12.4857C125.441 12.292 125.713 12.1708 126.002 12.139L127.531 11.8493L127.877 9.13403C127.886 8.82721 127.998 8.5323 128.194 8.29652C128.452 8.13418 128.757 8.06322 129.059 8.095H129.434C129.728 8.05908 130.025 8.13064 130.27 8.29652C130.436 8.54222 130.508 8.8396 130.472 9.13403V11.8493H134.508C134.848 11.8106 135.19 11.8922 135.475 12.0798C135.677 12.3647 135.764 12.7152 135.72 13.0617V13.4122C135.765 13.7587 135.677 14.1093 135.475 14.3942C135.19 14.5826 134.848 14.6645 134.508 14.6255H130.472V21.1791C130.472 22.8541 131.221 23.6914 132.721 23.6908C133.507 23.7001 134.291 23.613 135.057 23.4314C135.536 23.3354 135.853 23.3547 136.007 23.4893C136.202 23.7654 136.285 24.1059 136.238 24.441V24.7882C136.27 25.1412 136.189 25.4954 136.007 25.7991C135.746 26.0441 135.412 26.1962 135.057 26.2319C134.286 26.375 133.505 26.4524 132.721 26.4632C129.261 26.4632 127.531 24.6919 127.531 21.1493V14.6238H126.031C125.746 14.658 125.459 14.586 125.224 14.4215C125.06 14.1859 124.988 13.8981 125.022 13.6129" fill="white"/>
    <path d="M150.599 17.5132C150.599 17.5904 150.58 18.0139 150.541 18.7835C150.541 19.1721 150.409 19.5492 150.167 19.8524C149.841 20.0614 149.455 20.1528 149.07 20.1114H141.055V20.7466C141.055 21.8062 141.377 22.562 142.02 23.0142C142.664 23.4663 143.717 23.6924 145.179 23.6924C146.442 23.6906 147.7 23.5355 148.927 23.2306C149.388 23.115 149.701 23.1288 149.864 23.2719C150.068 23.5506 150.156 23.8978 150.109 24.2402V24.6151C150.146 24.9527 150.07 25.2929 149.893 25.5826C149.615 25.8133 149.282 25.9676 148.927 26.0303C147.704 26.3545 146.443 26.5102 145.179 26.4929C142.737 26.4929 140.944 25.9964 139.8 25.0033C138.657 24.0101 138.085 22.4459 138.085 20.3104V17.8012C138.085 13.6244 140.22 11.5357 144.489 11.5352C146.488 11.5352 148.006 12.0404 149.044 13.0509C150.082 14.0614 150.602 15.5488 150.602 17.5132M141.057 16.9645V17.6866H147.803V16.9645C147.803 15.058 146.669 14.1048 144.401 14.1048C142.17 14.1048 141.054 15.058 141.054 16.9645" fill="white"/>
    <path d="M156.394 16.8482V24.8758C156.449 25.0563 156.453 25.2483 156.407 25.4313C156.362 25.6142 156.267 25.7813 156.134 25.9147C156.001 26.0481 155.834 26.1428 155.651 26.1886C155.469 26.2345 155.277 26.2298 155.097 26.1751H154.721C154.541 26.2299 154.349 26.2346 154.167 26.1888C153.984 26.143 153.817 26.0484 153.684 25.915C153.55 25.7816 153.456 25.6144 153.41 25.4314C153.364 25.2484 153.369 25.0564 153.424 24.8758V16.6459C153.424 13.2385 155.24 11.5346 158.873 11.5343C159.066 11.5256 159.26 11.5353 159.451 11.5633C159.802 11.5709 160.141 11.6923 160.417 11.9092C160.615 12.2068 160.702 12.5648 160.662 12.9201V13.3252C160.708 13.6513 160.625 13.9823 160.431 14.2484C160.278 14.3836 159.951 14.4125 159.452 14.3353C159.26 14.3073 159.067 14.2976 158.873 14.3063C157.951 14.3063 157.308 14.4994 156.942 14.8856C156.576 15.2718 156.393 15.9266 156.394 16.8499" fill="white"/>
    <path d="M163.285 8.73211C163.11 8.56448 162.971 8.36271 162.877 8.13924C162.783 7.91577 162.735 7.67534 162.738 7.4328C162.734 7.19418 162.781 6.95748 162.875 6.73834C162.969 6.51921 163.109 6.32264 163.285 6.16163C163.452 5.98628 163.654 5.84715 163.877 5.75285C164.1 5.65855 164.34 5.61108 164.583 5.61336C165.061 5.62701 165.515 5.82321 165.853 6.16174C166.191 6.50027 166.387 6.95548 166.401 7.43404C166.403 7.67659 166.356 7.91703 166.261 8.14051C166.167 8.36398 166.028 8.56575 165.853 8.73335C165.688 8.90203 165.49 9.03505 165.272 9.12422C165.053 9.21339 164.819 9.25682 164.583 9.25183C164.343 9.25489 164.105 9.21055 163.882 9.12137C163.66 9.03219 163.457 8.89991 163.285 8.73211M163.083 24.8749V13.1506C163.04 12.7838 163.132 12.4136 163.343 12.1107C163.646 11.8996 164.015 11.8072 164.382 11.8513H164.756C165.122 11.8074 165.491 11.8997 165.794 12.1107C166.005 12.4138 166.097 12.7839 166.053 13.1506V24.8754C166.097 25.242 166.005 25.612 165.794 25.9148C165.492 26.1262 165.122 26.2189 164.756 26.1751H164.382C164.015 26.2189 163.646 26.1261 163.343 25.9144C163.132 25.6117 163.039 25.2417 163.083 24.8749Z" fill="white"/>
    <path d="M180.789 16.271V21.8729C180.789 23.4707 180.298 24.6404 179.318 25.3819C178.338 26.1234 176.782 26.494 174.649 26.4937C170.746 26.4937 168.795 25.0114 168.796 22.0467C168.796 20.5449 169.281 19.4427 170.252 18.7401C171.222 18.0375 172.697 17.6862 174.678 17.6862H177.85V16.271C177.882 15.9419 177.826 15.61 177.687 15.3101C177.547 15.0103 177.33 14.7536 177.057 14.567C176.528 14.2396 175.658 14.0757 174.447 14.0754C173.432 14.0631 172.418 14.1503 171.42 14.3357C171.28 14.3828 171.133 14.4008 170.987 14.3885C170.841 14.3761 170.699 14.3338 170.569 14.2641C170.389 14.0193 170.311 13.7132 170.353 13.4117V13.0078C170.322 12.6982 170.398 12.3871 170.569 12.1273C170.799 11.9235 171.086 11.7973 171.391 11.7665C172.345 11.6175 173.309 11.5402 174.274 11.5352C176.466 11.5352 178.1 11.9105 179.177 12.6611C180.254 13.4117 180.792 14.6153 180.791 16.2718M177.85 21.7293V19.9384H174.678C173.913 19.8833 173.147 20.0484 172.472 20.4143C172.229 20.5937 172.037 20.8325 171.913 21.1079C171.79 21.3833 171.739 21.686 171.766 21.9867C171.739 22.2801 171.789 22.5754 171.91 22.8438C172.031 23.1122 172.22 23.3444 172.458 23.5177C173.111 23.8713 173.851 24.0314 174.591 23.9791C175.764 23.9791 176.6 23.8155 177.099 23.4884C177.599 23.1612 177.849 22.5739 177.849 21.7264" fill="white"/>
    <path d="M184.132 8.7321C183.957 8.56455 183.818 8.36281 183.724 8.13933C183.63 7.91586 183.582 7.6754 183.584 7.4328C183.58 7.19418 183.627 6.95747 183.722 6.73834C183.816 6.5192 183.956 6.32263 184.132 6.16163C184.299 5.98632 184.5 5.84723 184.724 5.75293C184.947 5.65863 185.187 5.61113 185.429 5.61336C185.907 5.6271 186.361 5.82334 186.699 6.16185C187.037 6.50036 187.233 6.95551 187.247 7.43404C187.249 7.67661 187.202 7.91704 187.107 8.14051C187.013 8.36398 186.874 8.56574 186.699 8.73335C186.534 8.9021 186.336 9.03526 186.118 9.12463C185.9 9.21401 185.666 9.25772 185.43 9.25307C185.19 9.25614 184.952 9.21182 184.729 9.12264C184.507 9.03346 184.304 8.90117 184.132 8.73335M183.93 24.8762V13.1506C183.887 12.7838 183.979 12.4136 184.19 12.1107C184.493 11.8996 184.862 11.8073 185.229 11.8513H185.603C185.969 11.8074 186.339 11.8997 186.641 12.1107C186.852 12.4138 186.944 12.7839 186.9 13.1506V24.8754C186.944 25.242 186.852 25.612 186.641 25.9148C186.339 26.1262 185.969 26.2188 185.603 26.1751H185.229C184.862 26.219 184.493 26.1264 184.19 25.9148C183.979 25.6121 183.887 25.2421 183.93 24.8754" fill="#1E8CA5"/>
    <path d="M193.302 17.1351V24.873C193.357 25.0536 193.362 25.2456 193.316 25.4286C193.27 25.6117 193.176 25.7788 193.042 25.9123C192.909 26.0457 192.742 26.1403 192.56 26.1862C192.377 26.232 192.185 26.2272 192.005 26.1723H191.629C191.449 26.227 191.257 26.2317 191.075 26.1858C190.892 26.14 190.725 26.0453 190.592 25.9119C190.459 25.7785 190.364 25.6115 190.318 25.4285C190.273 25.2455 190.277 25.0535 190.332 24.873V17.1351C190.332 13.4005 192.283 11.5332 196.185 11.5332C198.299 11.5332 199.741 12.2358 200.51 13.6411C201.279 12.2364 202.721 11.5338 204.836 11.5332C206.816 11.5332 208.282 11.9953 209.234 12.9194C210.186 13.8435 210.661 15.2489 210.661 17.1355V24.8734C210.715 25.054 210.72 25.2459 210.674 25.4289C210.628 25.6119 210.534 25.779 210.401 25.9123C210.267 26.0457 210.101 26.1404 209.918 26.1862C209.735 26.2321 209.544 26.2274 209.363 26.1727H208.988C208.807 26.2274 208.616 26.2321 208.433 26.1862C208.25 26.1404 208.084 26.0457 207.95 25.9123C207.817 25.779 207.723 25.6119 207.677 25.4289C207.631 25.2459 207.636 25.054 207.69 24.8734V17.1351C207.69 16.0959 207.484 15.3649 207.071 14.942C206.657 14.5191 205.912 14.3074 204.835 14.3069C203.778 14.3069 203.028 14.5235 202.586 14.9569C202.144 15.3903 201.923 16.1169 201.925 17.1368V24.8747C201.98 25.0552 201.984 25.2472 201.938 25.4301C201.893 25.6131 201.798 25.7802 201.665 25.9136C201.532 26.047 201.365 26.1416 201.182 26.1875C201 26.2334 200.808 26.2287 200.628 26.174H200.338C200.158 26.2287 199.966 26.2334 199.784 26.1875C199.601 26.1416 199.434 26.047 199.301 25.9136C199.168 25.7802 199.073 25.6131 199.028 25.4301C198.982 25.2472 198.986 25.0552 199.041 24.8747V17.1351C199.041 16.0959 198.834 15.3649 198.421 14.942C198.008 14.5191 197.263 14.3074 196.187 14.3069C195.111 14.3069 194.361 14.5186 193.938 14.942C193.515 15.3655 193.304 16.0965 193.304 17.1351" fill="#1E8CA5"/>
    <path d="M226.001 17.5132C226.001 17.5904 225.981 18.0139 225.943 18.7835C225.943 19.1721 225.811 19.5491 225.568 19.8524C225.243 20.0614 224.856 20.1528 224.472 20.1114H216.457V20.7466C216.457 21.8062 216.779 22.562 217.423 23.0141C218.067 23.4663 219.119 23.6924 220.581 23.6924C221.844 23.6906 223.103 23.5356 224.329 23.2306C224.791 23.1151 225.103 23.13 225.267 23.2719C225.471 23.5507 225.559 23.8979 225.512 24.2402V24.6151C225.549 24.9526 225.473 25.2928 225.296 25.5826C225.018 25.8134 224.685 25.9677 224.329 26.0303C223.107 26.3545 221.846 26.5102 220.581 26.4929C218.139 26.4929 216.347 25.9963 215.203 25.0032C214.06 24.0101 213.488 22.4459 213.487 20.3104V17.8012C213.487 13.6244 215.621 11.5357 219.889 11.5352C221.888 11.5352 223.406 12.0404 224.445 13.0509C225.483 14.0614 226.001 15.5488 226.001 17.5132ZM216.456 16.9645V17.6866H223.204V16.9645C223.204 15.058 222.07 14.1048 219.802 14.1048C217.571 14.1048 216.455 15.058 216.455 16.9645" fill="#1E8CA5"/>
    <path d="M39.2694 24.4676L40.649 17.0053C40.3797 16.9711 40.1085 16.9537 39.8371 16.9531H25.8335C25.526 16.9607 25.2331 17.0864 25.0156 17.3042C24.7981 17.5221 24.6726 17.8154 24.665 18.1233V22.3937C24.6726 22.7016 24.7981 22.9949 25.0156 23.2128C25.2331 23.4306 25.526 23.5563 25.8335 23.5639H32.712C32.7845 23.5641 32.8559 23.5822 32.9199 23.6166C32.9839 23.651 33.0384 23.7006 33.0787 23.761C33.119 23.8215 33.1439 23.8909 33.1511 23.9633C33.1584 24.0356 33.1477 24.1086 33.1202 24.1759C33.0238 24.3965 32.9227 24.6134 32.8169 24.8263C32.7448 24.9679 32.7103 25.1256 32.7165 25.2844C32.7227 25.4432 32.7695 25.5978 32.8525 25.7332C32.9354 25.8687 33.0516 25.9806 33.1901 26.0582C33.3285 26.1359 33.4846 26.1766 33.6432 26.1765H37.5246C38.3141 26.1765 39.0946 25.4114 39.2694 24.468" fill="#1E8CA5"/>
    <path d="M2.02165 18.9105H6.6252C6.85723 18.9085 7.07961 18.8172 7.24617 18.6554C7.41274 18.4936 7.51069 18.2737 7.51971 18.0415C7.64044 15.7665 8.32635 13.5577 9.51524 11.6154C10.7041 9.67305 12.3584 8.05872 14.3279 6.91879C16.3984 5.69898 18.7597 5.06233 21.1618 5.07618L22.6802 5.13452C22.8183 5.15005 22.9581 5.13816 23.0915 5.09953C23.225 5.0609 23.3496 4.99629 23.4581 4.90939C23.5667 4.82249 23.657 4.71501 23.724 4.5931C23.791 4.4712 23.8334 4.33725 23.8486 4.19894L23.9168 3.82653L21.8853 1.72405L21.0833 0.886122C20.809 0.601773 20.4795 0.376527 20.1152 0.224189C19.7509 0.0718497 19.3593 -0.00437243 18.9646 0.00019366H11.4705L10.8796 0.152055C7.50699 2.00438 4.70845 4.75058 2.79056 8.08982C1.13822 10.9246 0.18179 14.112 0 17.3894C0.125798 17.8287 0.39127 18.2149 0.756125 18.4895C1.12098 18.764 1.5653 18.9118 2.02165 18.9105Z" fill="white"/>
    <path d="M33.4729 28.8539H30.4126C30.1321 28.8553 29.8627 28.9638 29.6594 29.1572C29.3339 29.4649 28.9923 29.755 28.6359 30.0262C26.9562 31.3 24.9661 32.0993 22.873 32.3409C22.0788 32.4562 21.3413 32.8198 20.7659 33.38L15.2728 38.5209C15.2183 38.572 15.1783 38.6365 15.1567 38.708C15.1352 38.7795 15.1329 38.8554 15.15 38.9281C15.1672 39.0008 15.2032 39.0676 15.2544 39.1219C15.3056 39.1762 15.3703 39.216 15.4417 39.2372C17.3046 39.7487 19.228 40.0054 21.1596 40.0002C24.7948 40.0505 28.3695 39.0667 31.4687 37.1633C33.1267 36.1307 34.6202 34.8542 35.8991 33.3767C36.0337 33.2214 36.1241 33.0327 36.161 32.8305L36.4007 31.5345C36.6783 30.0312 35.3929 28.8535 33.4729 28.8535" fill="white"/>
    <path d="M14.3267 30.6106C12.2527 29.4112 10.5303 27.6863 9.33272 25.6091C8.7074 24.5309 8.23817 23.3692 7.93909 22.1589C7.9024 22.0032 7.81449 21.8643 7.6895 21.7647C7.56451 21.665 7.40969 21.6103 7.24992 21.6094H0.714796C0.640987 21.6089 0.567954 21.6245 0.500775 21.6551C0.433597 21.6857 0.373887 21.7307 0.325796 21.7867C0.277705 21.8428 0.242389 21.9087 0.222303 21.9798C0.202218 22.051 0.197844 22.1256 0.209488 22.1986C0.650529 24.7424 1.52367 27.1917 2.79098 29.44C4.63391 32.6514 7.29426 35.3159 10.5008 37.1617C10.8767 37.3806 11.2581 37.5838 11.6423 37.7775L16.8805 32.8757C16.9707 32.7922 17.0378 32.6869 17.0754 32.5699C17.1129 32.4528 17.1197 32.328 17.095 32.2076C17.0704 32.0872 17.0151 31.9752 16.9345 31.8824C16.8539 31.7897 16.7508 31.7193 16.6351 31.6782C15.8334 31.3965 15.0604 31.0386 14.3267 30.6094" fill="white"/>
    <path d="M32.3815 11.76L34.5155 13.9887C34.6016 14.0785 34.7048 14.15 34.8191 14.1989C34.9335 14.2477 35.0565 14.2729 35.1807 14.2729H40.197C40.4398 14.2443 40.6662 14.1359 40.8409 13.9648C41.0157 13.7937 41.129 13.5694 41.163 13.327L42.0381 8.59241C42.1348 8.07021 41.8588 7.64648 41.4217 7.64648H36.405C36.1277 7.65427 35.8605 7.75167 35.6431 7.92414L32.4993 10.2931C32.3883 10.3767 32.2962 10.4829 32.2293 10.6047C32.1623 10.7265 32.1218 10.8612 32.1106 10.9998C32.0994 11.1385 32.1177 11.2779 32.1642 11.4089C32.2108 11.54 32.2846 11.6596 32.3807 11.76" fill="#1E8CA5"/>
    <path d="M204.626 34.4065C204.538 34.4068 204.451 34.3897 204.37 34.3562C204.289 34.3227 204.216 34.2736 204.154 34.2115C204.092 34.1494 204.043 34.0757 204.009 33.9945C203.976 33.9134 203.959 33.8264 203.959 33.7386C203.96 33.6065 204 33.4776 204.074 33.3681C204.148 33.2585 204.252 33.1733 204.374 33.1229C204.496 33.0726 204.63 33.0594 204.76 33.085C204.889 33.1106 205.009 33.1739 205.102 33.2669C205.224 33.3941 205.291 33.5633 205.291 33.7393C205.291 33.9152 205.224 34.0844 205.102 34.2116C205.041 34.2753 204.966 34.3255 204.884 34.359C204.802 34.3926 204.714 34.4087 204.625 34.4065" fill="#1E8CA5"/>
    <path d="M208.552 34.4276C208.139 34.4258 207.731 34.3289 207.362 34.1445C206.992 33.96 206.669 33.6929 206.419 33.3637C206.169 33.0345 205.997 32.6521 205.918 32.2461C205.839 31.84 205.854 31.4212 205.962 31.0218C206.07 30.6225 206.269 30.2535 206.542 29.9432C206.815 29.6329 207.156 29.3896 207.538 29.2322C207.92 29.0748 208.333 29.0075 208.745 29.0355C209.157 29.0634 209.558 29.1859 209.915 29.3934C210.306 29.6233 210.62 29.9646 210.816 30.3737L210.069 30.8044C209.938 30.5308 209.73 30.3022 209.469 30.1477C209.122 29.9476 208.719 29.8663 208.321 29.9163C207.924 29.9663 207.553 30.1447 207.266 30.4246C206.934 30.775 206.749 31.2398 206.749 31.7231C206.749 32.2063 206.934 32.6711 207.266 33.0215C207.433 33.1928 207.633 33.3277 207.854 33.4178C208.075 33.508 208.313 33.5514 208.552 33.5454C208.875 33.5504 209.194 33.467 209.474 33.3042C209.74 33.1512 209.957 32.9252 210.1 32.6528L210.858 33.0935C210.64 33.4981 210.313 33.8339 209.915 34.0639C209.502 34.3075 209.031 34.4335 208.552 34.428" fill="#1E8CA5"/>
    <path d="M215.992 33.6485C215.614 34.023 215.134 34.2771 214.612 34.3788C214.09 34.4805 213.549 34.4253 213.058 34.22C212.568 34.0148 212.148 33.6688 211.854 33.2255C211.559 32.7822 211.401 32.2615 211.401 31.7289C211.401 31.1962 211.559 30.6755 211.854 30.2322C212.148 29.7889 212.568 29.4429 213.058 29.2377C213.549 29.0325 214.09 28.9773 214.612 29.079C215.134 29.1807 215.614 29.4348 215.992 29.8093C216.498 30.3198 216.782 31.0098 216.782 31.7289C216.782 32.448 216.498 33.1379 215.992 33.6485ZM214.076 33.5558C214.488 33.5512 214.885 33.404 215.201 33.1391C215.517 32.8743 215.732 32.5081 215.809 32.1028C215.886 31.6975 215.82 31.2781 215.623 30.9156C215.427 30.5532 215.111 30.2701 214.729 30.1144C214.348 29.9588 213.924 29.9401 213.53 30.0616C213.137 30.1832 212.797 30.4374 212.569 30.7811C212.342 31.1249 212.24 31.537 212.281 31.9475C212.322 32.358 212.504 32.7416 212.795 33.0331C212.962 33.2026 213.162 33.3363 213.382 33.4261C213.602 33.5159 213.838 33.5601 214.076 33.5558Z" fill="#1E8CA5"/>
    <path d="M223.372 29.0293C223.631 29.019 223.889 29.0634 224.129 29.1599C224.369 29.2563 224.587 29.4024 224.767 29.5888C225.137 30.003 225.329 30.5474 225.299 31.1028V34.2952H224.407V31.1334C224.428 30.7973 224.318 30.466 224.1 30.2099C223.995 30.0993 223.868 30.0126 223.726 29.9555C223.585 29.8984 223.433 29.8723 223.281 29.8788C223.109 29.8716 222.938 29.9024 222.779 29.969C222.62 30.0357 222.478 30.1366 222.363 30.2645C222.109 30.6006 221.987 31.0188 222.02 31.4392V34.2944H221.128V31.1326C221.149 30.7991 221.045 30.4698 220.836 30.209C220.736 30.0986 220.613 30.0117 220.476 29.9545C220.339 29.8973 220.191 29.8711 220.042 29.878C219.867 29.8735 219.693 29.9059 219.532 29.9731C219.37 30.0403 219.225 30.1409 219.104 30.2682C218.832 30.5943 218.697 31.0143 218.73 31.4384V34.2936H217.839V29.1625H218.73V29.8503C218.887 29.5887 219.113 29.3745 219.382 29.2301C219.651 29.0857 219.954 29.0165 220.258 29.0297C220.567 29.0128 220.874 29.0863 221.142 29.2413C221.409 29.3963 221.626 29.626 221.765 29.9024C221.928 29.6232 222.164 29.3941 222.448 29.2402C222.731 29.0863 223.052 29.0135 223.374 29.0297" fill="#1E8CA5"/>
  </g>
  <defs>
    <clipPath id="clip0_1830_17563">
      <rect width="226" height="40" fill="white"/>
    </clipPath>
  </defs>
</svg>