<svg xmlns="http://www.w3.org/2000/svg" width="27" height="20" viewBox="0 0 27 20" fill="none">
  <g clipPath="url(#clip0_617_8607)">
    <path d="M0 0H27V20H0V0Z" fill="#D20000"/>
    <path d="M0 0H4.05L13.5 9.64167L22.95 0H27L0 20H4.05L13.5 10.3583L22.95 20H27L0 0ZM27 8V12L0 8V12L27 8ZM11.8125 0L13.5 8.57083L15.1875 0H11.8125ZM11.8125 20L13.5 11.4292L15.1875 20H11.8125Z" fill="#FFE600"/>
    <path d="M13.4997 13.2121C15.2961 13.2121 16.7524 11.7738 16.7524 9.99961C16.7524 8.22539 15.2961 6.78711 13.4997 6.78711C11.7033 6.78711 10.2471 8.22539 10.2471 9.99961C10.2471 11.7738 11.7033 13.2121 13.4997 13.2121Z" fill="#FFE600" stroke="#D20000" strokeWidth="2.1375"/>
  </g>
  <defs>
    <clipPath id="clip0_617_8607">
      <rect width="27" height="20" fill="white"/>
    </clipPath>
  </defs>
</svg>