<svg xmlns="http://www.w3.org/2000/svg" width="50" height="35" viewBox="0 0 50 35" fill="none">
  <path d="M38.428 14H35.5874C35.4203 14 35.2532 14.1684 35.1697 14.3368L34 21.7474C34 21.9158 34.0835 22 34.2506 22H35.7545C35.9216 22 36.0051 21.9158 36.0051 21.7474L36.3393 19.6421C36.3393 19.4737 36.5064 19.3053 36.7571 19.3053H37.6761C39.5977 19.3053 40.6838 18.3789 40.9344 16.5263C41.1015 15.7684 40.9344 15.0947 40.6003 14.6737C40.099 14.2526 39.347 14 38.428 14ZM38.7622 16.7789C38.5951 17.7895 37.8432 17.7895 37.0913 17.7895H36.59L36.9242 15.8526C36.9242 15.7684 37.0077 15.6842 37.1748 15.6842H37.3419C37.8432 15.6842 38.3445 15.6842 38.5951 16.0211C38.7622 16.1053 38.7622 16.3579 38.7622 16.7789Z" fill="#139AD6"/>
  <path d="M19.2063 14.4453H16.5079C16.3492 14.4453 16.1905 14.604 16.1111 14.7628L15 21.7469C15 21.9056 15.0794 21.985 15.2381 21.985H16.5079C16.6667 21.985 16.8254 21.8263 16.9048 21.6675L17.2222 19.7628C17.2222 19.604 17.381 19.4453 17.619 19.4453H18.4921C20.3175 19.4453 21.3492 18.5723 21.5873 16.8263C21.746 16.112 21.5873 15.4771 21.2698 15.0802C20.7937 14.6834 20.1587 14.4453 19.2063 14.4453ZM19.5238 17.0644C19.3651 18.0167 18.6508 18.0167 17.9365 18.0167H17.5397L17.8571 16.1913C17.8571 16.112 17.9365 16.0326 18.0952 16.0326H18.254C18.7302 16.0326 19.2063 16.0326 19.4444 16.3501C19.5238 16.4294 19.6032 16.6675 19.5238 17.0644Z" fill="#263B80"/>
  <path d="M27.3805 16.9849H26.1107C26.0313 16.9849 25.8726 17.0643 25.8726 17.1436L25.7932 17.5405L25.7139 17.3817C25.3964 16.9849 24.8409 16.8262 24.2059 16.8262C22.7774 16.8262 21.5075 17.9373 21.2694 19.4452C21.1107 20.2389 21.3488 20.9532 21.7456 21.4294C22.1425 21.9055 22.698 22.0643 23.4123 22.0643C24.6028 22.0643 25.2377 21.35 25.2377 21.35L25.1583 21.7468C25.1583 21.9055 25.2377 21.9849 25.3964 21.9849H26.5869C26.7456 21.9849 26.9044 21.8262 26.9837 21.6674L27.698 17.223C27.6186 17.1436 27.4599 16.9849 27.3805 16.9849ZM25.5552 19.5246C25.3964 20.2389 24.8409 20.7944 24.0472 20.7944C23.6504 20.7944 23.3329 20.6357 23.1742 20.477C23.0155 20.2389 22.9361 19.9214 22.9361 19.5246C23.0155 18.8103 23.6504 18.2547 24.3647 18.2547C24.7615 18.2547 24.9996 18.4135 25.2377 18.5722C25.4758 18.8103 25.5552 19.2071 25.5552 19.5246Z" fill="#263B80"/>
  <path d="M46.706 17.1515H45.5299C45.4564 17.1515 45.3094 17.2273 45.3094 17.303L45.2359 17.6818L45.1624 17.5303C44.8683 17.1515 44.3538 17 43.7658 17C42.4427 17 41.2666 18.0606 41.046 19.5C40.899 20.2576 41.1196 20.9394 41.4871 21.3939C41.8546 21.8485 42.3691 22 43.0307 22C44.1333 22 44.7213 21.3182 44.7213 21.3182L44.6478 21.697C44.6478 21.8485 44.7213 21.9242 44.8683 21.9242H45.9709C46.1179 21.9242 46.2649 21.7727 46.3385 21.6212L47 17.3788C46.9265 17.303 46.853 17.1515 46.706 17.1515ZM45.0153 19.5758C44.8683 20.2576 44.3538 20.7879 43.6187 20.7879C43.2512 20.7879 42.9572 20.6364 42.8102 20.4848C42.6632 20.2576 42.5897 19.9545 42.5897 19.5758C42.6632 18.8939 43.2512 18.3636 43.9128 18.3636C44.2803 18.3636 44.5008 18.5152 44.7213 18.6667C45.0153 18.8939 45.0889 19.2727 45.0153 19.5758Z" fill="#139AD6"/>
  <path d="M33.8091 17H32.5266C32.3757 17 32.3003 17.0805 32.2248 17.1609L30.5651 19.8966L29.8106 17.3218C29.7352 17.1609 29.6598 17.0805 29.4334 17.0805H28.2263C28.0754 17.0805 28 17.2414 28 17.4023L29.358 21.6667L28.0754 23.5977C28 23.7586 28.0754 24 28.2263 24H29.4334C29.5843 24 29.6598 23.9195 29.7352 23.8391L33.8846 17.4828C34.1109 17.2414 33.96 17 33.8091 17Z" fill="#263B80"/>
  <path d="M48.1667 14.2006L47 21.7484C47 21.9161 47.0833 22 47.25 22H48.4167C48.5833 22 48.75 21.8323 48.8333 21.6645L50 14.2845C50 14.1168 49.9167 14.0329 49.75 14.0329H48.4167C48.3333 13.949 48.25 14.0329 48.1667 14.2006Z" fill="#139AD6"/>
  <path d="M9.33128 11.9296C8.76329 11.3099 7.70845 11 6.2479 11H2.19082C1.9474 11 1.70397 11.2324 1.62283 11.4648L0 21.6127C0 21.8451 0.162283 22 0.324566 22H2.83995L3.48909 18.2042V18.3592C3.57023 18.1268 3.81365 17.8944 4.05708 17.8944H5.2742C7.62731 17.8944 9.41242 16.9648 9.98041 14.4085C9.98041 14.331 9.98041 14.2535 9.98041 14.1761C9.89927 14.1761 9.89927 14.1761 9.98041 14.1761C10.0616 13.169 9.89927 12.5493 9.33128 11.9296Z" fill="#263B80"/>
  <path d="M10.0632 14C10.0632 14.084 10.0632 14.1681 10.0632 14.2521C9.51389 17.1092 7.78731 18.0336 5.51138 18.0336H4.33417C4.09873 18.0336 3.86329 18.2857 3.78481 18.5378L3 23.6639C3 23.8319 3.07848 24 3.31392 24H5.35442C5.58986 24 5.8253 23.8319 5.8253 23.5798V23.4958L6.2177 20.8908V20.7227C6.2177 20.4706 6.45314 20.3025 6.68859 20.3025H7.00251C8.96452 20.3025 10.5341 19.4622 10.9265 16.9412C11.0835 15.9328 11.005 15.0084 10.5341 14.4202C10.4557 14.2521 10.2987 14.084 10.0632 14Z" fill="#139AD6"/>
  <path d="M9.22222 14.25C9.1358 14.25 9.04938 14.1667 8.96296 14.1667C8.87654 14.1667 8.79012 14.1667 8.7037 14.0833C8.35802 14 8.01235 14 7.58025 14H4.20988C4.12346 14 4.03704 14 3.95062 14.0833C3.77778 14.1667 3.69136 14.3333 3.69136 14.5L3 18.8333V19C3.08642 18.75 3.34568 18.5 3.60494 18.5H4.90123C7.40741 18.5 9.30864 17.5 9.91358 14.75C9.91358 14.6667 9.91358 14.5833 10 14.5C9.82716 14.4167 9.74074 14.3333 9.5679 14.3333C9.30864 14.25 9.30864 14.25 9.22222 14.25Z" fill="#232C65"/>
</svg>