<svg width="18" height="18" viewBox="0 0 18 18" fill="none" xmlns="http://www.w3.org/2000/svg">
<path d="M5 7.25V2H14V7.25M5 14H3.5C3.10218 14 2.72064 13.842 2.43934 13.5607C2.15804 13.2794 2 12.8978 2 12.5V8.75C2 8.35218 2.15804 7.97064 2.43934 7.68934C2.72064 7.40804 3.10218 7.25 3.5 7.25H15.5C15.8978 7.25 16.2794 7.40804 16.5607 7.68934C16.842 7.97064 17 8.35218 17 8.75V12.5C17 12.8978 16.842 13.2794 16.5607 13.5607C16.2794 13.842 15.8978 14 15.5 14H14M5 11H14V17H5V11Z" stroke="#1B2443" strokeLinecap="round" strokeLinejoin="round"/>
</svg>
