<svg width="20" height="20" viewBox="0 0 20 20" fill="none" xmlns="http://www.w3.org/2000/svg">
<path d="M17.6161 18.0002H2.38941C2.35453 17.2594 2.44328 16.5181 2.65214 15.8055C3.04324 14.4974 3.85063 13.3473 4.95557 12.5244C6.06052 11.7015 7.40469 11.2491 8.79039 11.2339C9.78946 11.2258 10.7954 11.1965 11.7876 11.2843C14.5705 11.5285 16.9109 13.6503 17.4315 16.3573C17.5331 16.8859 17.5573 17.4294 17.6161 18.0002Z" fill="#1B2443"/>
<path d="M9.96989 10.4147C8.83527 10.4112 7.74831 9.96534 6.94724 9.17471C6.14617 8.38407 5.69634 7.3132 5.69635 6.19679C5.69965 5.08107 6.15302 4.0123 6.95683 3.22534C7.76064 2.43839 8.84911 1.99766 9.98303 2.00001C10.5447 2.00046 11.1009 2.10977 11.6197 2.32172C12.1384 2.53366 12.6097 2.84408 13.0066 3.23525C13.4034 3.62642 13.718 4.09067 13.9325 4.6015C14.147 5.11233 14.2571 5.65973 14.2566 6.21243C14.2524 7.32837 13.7989 8.39718 12.9954 9.18481C12.192 9.97243 11.104 10.4147 9.96989 10.4147Z" fill="#1B2443"/>
</svg>
