<svg width="21" height="20" viewBox="0 0 21 20" fill="none" xmlns="http://www.w3.org/2000/svg">
<path d="M1.94196 10.8646C1.97409 10.7262 2.00087 10.5985 2.03568 10.4468C2.20464 9.7524 2.60306 9.13436 3.16723 8.69149C3.7314 8.24863 4.42872 8.00652 5.1477 8.00391C5.86544 8.00391 6.58588 8.00391 7.30362 8.00391H7.52323C7.55602 8.80896 7.89819 9.57088 8.47932 10.1328C7.56462 10.4135 6.78582 11.0188 6.29127 11.8332C5.77707 12.6662 5.70744 13.5816 5.75564 14.5476C4.45877 14.4671 3.17737 14.2239 1.94196 13.8237V10.8646Z" fill="#1B2443"/>
<path d="M14.9069 14.8622C14.9069 15.2986 14.9069 15.7377 14.9069 16.1742C14.9132 16.232 14.8989 16.2902 14.8667 16.3388C14.8344 16.3874 14.7861 16.4233 14.7301 16.4403C14.0918 16.718 13.419 16.9095 12.7295 17.0097C10.6919 17.3012 8.61421 17.1255 6.65547 16.4961C6.33677 16.4003 6.33411 16.403 6.33411 16.0704C6.33411 15.272 6.33411 14.4737 6.33411 13.6754C6.34936 12.8778 6.66852 12.1156 7.22721 11.5427C7.7859 10.9698 8.54251 10.6288 9.34435 10.5885C10.2228 10.5512 11.1066 10.5566 11.985 10.5885C13.2357 10.6417 14.4382 11.6529 14.7676 12.8824C14.8776 13.3855 14.9199 13.9009 14.8935 14.4152L14.9069 14.8622Z" fill="#1B2443"/>
<path d="M15.4934 14.6219C15.4934 14.2201 15.5095 13.8821 15.4934 13.5575C15.4515 12.8062 15.1843 12.0846 14.7261 11.4856C14.2678 10.8866 13.6397 10.4376 12.9224 10.1965L12.7751 10.1406C13.3549 9.57852 13.6944 8.81609 13.7231 8.01172C13.7714 8.01172 13.8035 8.01172 13.8356 8.01172C14.5373 8.01172 15.2417 8.01172 15.9433 8.01172C16.7436 8.03313 17.5065 8.35248 18.0809 8.90647C18.6553 9.46047 18.9993 10.2087 19.0446 11.0028C19.0821 11.8969 19.0446 12.7964 19.0446 13.6932C19.0401 13.7227 19.0284 13.7506 19.0107 13.7747C18.993 13.7988 18.9697 13.8183 18.9429 13.8316C18.4694 14.0224 17.9847 14.1841 17.4913 14.3159C16.8593 14.4516 16.1978 14.5155 15.4934 14.6219Z" fill="#1B2443"/>
<path d="M8.10171 7.90823C8.10171 7.24714 8.36563 6.61304 8.83558 6.14508C9.30554 5.67712 9.94313 5.41352 10.6085 5.41211C11.2736 5.41419 11.9111 5.67695 12.3825 6.14331C12.8538 6.60967 13.121 7.24198 13.1259 7.9029C13.1263 8.23159 13.0613 8.55713 12.9347 8.8608C12.8081 9.16447 12.6224 9.44031 12.3883 9.67248C12.1541 9.90465 11.8761 10.0886 11.5702 10.2137C11.2643 10.3389 10.9366 10.4027 10.6058 10.4017C10.2763 10.4024 9.94992 10.3383 9.64544 10.2132C9.34096 10.0881 9.0644 9.90437 8.83166 9.67262C8.59893 9.44087 8.4146 9.16567 8.28933 8.86286C8.16405 8.56005 8.10029 8.23562 8.10171 7.90823Z" fill="#1B2443"/>
<path d="M3.70154 5.33544C3.7011 4.72058 3.92905 4.12719 4.34172 3.66902C4.75439 3.21085 5.32273 2.92015 5.93779 2.85263C6.56399 2.7848 7.19304 2.95269 7.70076 3.32317C8.20847 3.69364 8.55794 4.23978 8.68022 4.85378C8.69361 4.92829 8.70432 5.00546 8.71503 5.08263C8.73803 5.18867 8.73064 5.29899 8.69372 5.40106C8.65679 5.50313 8.59181 5.59287 8.50615 5.6601C8.01993 6.08323 7.69391 6.65881 7.58218 7.29136C7.57436 7.33944 7.55459 7.38481 7.52466 7.42338C7.49473 7.46195 7.45558 7.49248 7.41077 7.51223C7.02967 7.71925 6.60098 7.82435 6.1667 7.81719C5.73242 7.81003 5.30746 7.69087 4.93348 7.4714C4.5595 7.25193 4.24933 6.93967 4.03337 6.56523C3.8174 6.19079 3.70306 5.76701 3.70154 5.33544Z" fill="#1B2443"/>
<path d="M17.2904 5.33206C17.2907 5.74045 17.1898 6.14263 16.9966 6.5031C16.8035 6.86356 16.524 7.17124 16.1828 7.39899C15.8417 7.62673 15.4493 7.76753 15.0404 7.80897C14.6316 7.85041 14.2187 7.7912 13.8383 7.63658C13.8065 7.62176 13.7784 7.6003 13.7557 7.57366C13.7331 7.54702 13.7165 7.51584 13.7071 7.48224C13.644 7.05282 13.4908 6.64137 13.2573 6.27461C13.0239 5.90785 12.7154 5.59397 12.3519 5.35336C12.2555 5.28683 12.2689 5.20965 12.277 5.1245C12.3282 4.49956 12.6147 3.9168 13.0794 3.49258C13.5441 3.06836 14.1527 2.83388 14.7837 2.83595C15.1132 2.8363 15.4395 2.90114 15.7438 3.02677C16.0481 3.1524 16.3246 3.33636 16.5574 3.56815C16.7901 3.79993 16.9747 4.07501 17.1005 4.37766C17.2262 4.68031 17.2908 5.00462 17.2904 5.33206Z" fill="#1B2443"/>
</svg>
