<svg xmlns="http://www.w3.org/2000/svg" width="20" height="20" viewBox="0 0 24 24" fill="none">
  <path d="M3 11L5.48 5.212C5.63432 4.852 5.89096 4.54524 6.21805 4.32978C6.54515 4.11432 6.92832 3.99965 7.32 4H16.682C17.0733 4.00004 17.4561 4.1149 17.7828 4.33033C18.1095 4.54577 18.3658 4.85231 18.52 5.212L21 11M3 11H21M3 11V18M21 11V18M3 18V18.5C3 18.8978 3.15804 19.2794 3.43934 19.5607C3.72064 19.842 4.10218 20 4.5 20C4.89782 20 5.27936 19.842 5.56066 19.5607C5.84196 19.2794 6 18.8978 6 18.5V18M3 18H6M21 18V18.5C21 18.8978 20.842 19.2794 20.5607 19.5607C20.2794 19.842 19.8978 20 19.5 20C19.1022 20 18.7206 19.842 18.4393 19.5607C18.158 19.2794 18 18.8978 18 18.5V18M21 18H18M18 18H6" stroke="black" strokeWidth="1.2" strokeLinecap="round" strokeLinejoin="round"/>
  <circle cx="6" cy="14" r="1" fill="black"/>
  <circle cx="18" cy="14" r="1" fill="black"/>
</svg>