<svg xmlns="http://www.w3.org/2000/svg" width="50" height="35" viewBox="0 0 50 35" fill="none">
  <path d="M19.666 22.8094L21.6978 11.3809H24.8723L22.9041 22.8094H19.666Z" fill="#3C58BF"/>
  <path d="M19.666 22.8094L22.2692 11.3809H24.8723L22.9041 22.8094H19.666Z" fill="#293688"/>
  <path d="M34.3969 11.5079C33.762 11.254 32.7461 11 31.4763 11C28.3017 11 26.0159 12.5873 26.0159 14.873C26.0159 16.5873 27.6032 17.4762 28.8731 18.0476C30.1429 18.619 30.5239 19 30.5239 19.5079C30.5239 20.2698 29.508 20.6508 28.6191 20.6508C27.3493 20.6508 26.6509 20.4603 25.5715 20.0159L25.1271 19.8254L24.6826 22.4286C25.4445 22.746 26.8413 23.0635 28.3017 23.0635C31.6667 23.0635 33.8889 21.4762 33.8889 19.0635C33.8889 17.7301 33.0636 16.7143 31.1588 15.8889C30.0159 15.3175 29.3175 15 29.3175 14.4286C29.3175 13.9206 29.889 13.4127 31.1588 13.4127C32.2382 13.4127 33.0001 13.6032 33.5715 13.8571L33.8889 13.9841L34.3969 11.5079Z" fill="#3C58BF"/>
  <path d="M34.3969 11.5079C33.762 11.254 32.7461 11 31.4763 11C28.3017 11 26.5874 12.5873 26.5874 14.873C26.5874 16.5873 27.6032 17.4762 28.8731 18.0476C30.1429 18.619 30.5239 19 30.5239 19.5079C30.5239 20.2698 29.508 20.6508 28.6191 20.6508C27.3493 20.6508 26.6509 20.4603 25.5715 20.0159L25.1271 19.8254L24.6826 22.4286C25.4445 22.746 26.8413 23.0635 28.3017 23.0635C31.6667 23.0635 33.8889 21.4762 33.8889 19.0635C33.8889 17.7301 33.0636 16.7143 31.1588 15.8889C30.0159 15.3175 29.3175 15 29.3175 14.4286C29.3175 13.9206 29.889 13.4127 31.1588 13.4127C32.2382 13.4127 33.0001 13.6032 33.5715 13.8571L33.8889 13.9841L34.3969 11.5079Z" fill="#293688"/>
  <path d="M39.856 11.3809C39.0941 11.3809 38.5227 11.4444 38.2052 12.2063L33.4434 22.8094H36.8719L37.5068 20.9046H41.5703L41.9513 22.8094H44.9989L42.3322 11.3809H39.856ZM38.3957 18.9999C38.5862 18.4285 39.6656 15.6348 39.6656 15.6348C39.6656 15.6348 39.9195 14.9364 40.11 14.492L40.3005 15.5713C40.3005 15.5713 40.9354 18.4285 41.0624 19.0634H38.3957V18.9999Z" fill="#3C58BF"/>
  <path d="M40.6179 11.3809C39.856 11.3809 39.2846 11.4444 38.9671 12.2063L33.4434 22.8094H36.8719L37.5068 20.9046H41.5703L41.9513 22.8094H44.9989L42.3322 11.3809H40.6179ZM38.3957 18.9999C38.6497 18.365 39.6656 15.6348 39.6656 15.6348C39.6656 15.6348 39.9195 14.9364 40.11 14.492L40.3005 15.5713C40.3005 15.5713 40.9354 18.4285 41.0624 19.0634H38.3957V18.9999Z" fill="#293688"/>
  <path d="M13.8263 19.3818L13.5089 17.731C12.9375 15.8262 11.0962 13.731 9.06445 12.7151L11.9216 22.8738H15.3501L20.493 11.4453H17.0644L13.8263 19.3818Z" fill="#3C58BF"/>
  <path d="M13.8263 19.3818L13.5089 17.731C12.9375 15.8262 11.0962 13.731 9.06445 12.7151L11.9216 22.8738H15.3501L20.493 11.4453H17.6994L13.8263 19.3818Z" fill="#293688"/>
  <path d="M5 11.3809L5.57143 11.5078C9.63491 12.4602 12.4286 14.8729 13.5079 17.7301L12.3651 12.3332C12.1746 11.5713 11.6032 11.3809 10.9047 11.3809H5Z" fill="#FFBC00"/>
  <path d="M5 11.3809C9.06348 12.3332 12.4286 14.8094 13.5079 17.6666L12.4286 13.1586C12.2381 12.3967 11.6032 11.9523 10.9047 11.9523L5 11.3809Z" fill="#F7981D"/>
  <path d="M5 11.3809C9.06348 12.3332 12.4286 14.8094 13.5079 17.6666L12.746 15.1904C12.5555 14.4285 12.3016 13.6666 11.4127 13.3491L5 11.3809Z" fill="#ED7C00"/>
  <path d="M16.999 18.9996L14.8402 16.8409L13.8244 19.2535L13.5704 17.6663C12.999 15.7615 11.1577 13.6663 9.12598 12.6504L11.9831 22.8091H15.4117L16.999 18.9996Z" fill="#051244"/>
  <path d="M22.9041 22.8093L20.174 20.0156L19.666 22.8093H22.9041Z" fill="#051244"/>
  <path d="M30.2064 18.873C30.4604 19.127 30.5874 19.3175 30.5239 19.5715C30.5239 20.3334 29.508 20.7143 28.6191 20.7143C27.3493 20.7143 26.6509 20.5238 25.5715 20.0794L25.1271 19.8889L24.6826 22.4921C25.4445 22.8095 26.8413 23.127 28.3017 23.127C30.3334 23.127 31.9842 22.5556 32.9366 21.5397L30.2064 18.873Z" fill="#051244"/>
  <path d="M33.8887 22.8096H36.8728L37.5077 20.9049H41.5712L41.9521 22.8096H44.9998L43.9204 18.1747L40.1109 14.4922L40.3014 15.5081C40.3014 15.5081 40.9363 18.3652 41.0633 19.0001H38.3966C38.6506 18.3652 39.6664 15.635 39.6664 15.635C39.6664 15.635 39.9204 14.9366 40.1109 14.4922" fill="#051244"/>
</svg>